<?xml version="1.0" standalone="no"?><!DOCTYPE svg PUBLIC "-//W3C//DTD SVG 1.1//EN" "http://www.w3.org/Graphics/SVG/1.1/DTD/svg11.dtd"><svg t="1576572316883" class="icon" viewBox="0 0 1228 1024" version="1.1" xmlns="http://www.w3.org/2000/svg" p-id="2047" xmlns:xlink="http://www.w3.org/1999/xlink" width="38.375" height="32"><defs><style type="text/css"></style></defs><path d="M475.93472 473.10848a20.48 20.48 0 1 0 29.65504-28.2624A243.67104 243.67104 0 0 0 327.68 368.64C192.16384 368.64 81.92 478.88384 81.92 614.4c0 15.09376 1.37216 30.18752 4.07552 44.8512a20.48 20.48 0 0 0 40.28416-7.45472A206.68416 206.68416 0 0 1 122.88 614.4c0-112.92672 91.87328-204.8 204.8-204.8a203.12064 203.12064 0 0 1 148.25472 63.50848M465.03936 350.04416a20.48 20.48 0 1 0 33.9968 22.8352A286.63808 286.63808 0 0 1 737.28 245.76c158.1056 0 286.72 128.6144 286.72 286.72 0 25.98912-3.46112 51.712-10.30144 76.47232a20.48 20.48 0 0 0 39.48544 10.89536C1061.00736 591.54432 1064.96 562.13504 1064.96 532.48c0-180.67456-147.00544-327.68-327.68-327.68a327.49568 327.49568 0 0 0-272.24064 145.24416" fill="#231F1F" p-id="2048"></path><path d="M1124.70016 577.39264a20.48 20.48 0 0 0-23.63392 33.46432A205.29152 205.29152 0 0 1 1187.84 778.24c0 112.92672-91.87328 204.8-204.8 204.8H163.84c-67.76832 0-122.88-55.11168-122.88-122.88s55.11168-122.88 122.88-122.88a20.48 20.48 0 0 0 0-40.96c-90.33728 0-163.84 73.50272-163.84 163.84s73.50272 163.84 163.84 163.84h819.2c135.51616 0 245.76-110.24384 245.76-245.76 0-79.70816-38.912-154.78784-104.09984-200.84736M184.36096 367.90272a20.48 20.48 0 0 0 24.18688-15.93344c17.44896-85.27872 93.3888-147.1488 180.57216-147.1488 40.30464 0 78.58176 12.77952 110.71488 36.94592a20.50048 20.50048 0 0 0 24.61696-32.74752A223.49824 223.49824 0 0 0 389.12 163.86048c-106.55744 0-199.3728 75.65312-220.69248 179.87584a20.45952 20.45952 0 0 0 15.93344 24.1664M591.85152 206.86848a20.41856 20.41856 0 0 0 14.47936-6.00064l57.9584-57.91744c7.9872-8.00768 7.9872-20.97152 0-28.9792a20.52096 20.52096 0 0 0-28.9792 0l-57.93792 57.93792a20.48 20.48 0 0 0 14.47936 34.95936M389.12 122.90048a20.48 20.48 0 0 0 20.48-20.48V20.48a20.48 20.48 0 0 0-40.96 0v81.94048a20.48 20.48 0 0 0 20.48 20.48M171.90912 200.86784a20.41856 20.41856 0 0 0 28.95872 0 20.48 20.48 0 0 0 0-28.95872L142.92992 113.9712a20.52096 20.52096 0 0 0-28.9792 0 20.52096 20.52096 0 0 0 0 28.9792l57.9584 57.91744M20.48 409.62048L102.4 409.6a20.48 20.48 0 1 0 0-40.96l-81.92 0.02048a20.48 20.48 0 0 0 0 40.96M260.48512 132.07552a20.48 20.48 0 1 0 37.82656-15.68768l-15.6672-37.84704a20.48 20.48 0 0 0-37.84704 15.68768l15.68768 37.84704M491.008 143.13472a20.43904 20.43904 0 0 0 26.74688-11.07968l15.68768-37.82656a20.48 20.48 0 0 0-37.84704-15.68768l-15.6672 37.84704a20.43904 20.43904 0 0 0 11.07968 26.74688M78.56128 282.64448l37.84704 15.6672a20.48 20.48 0 0 0 15.6672-37.84704l-37.82656-15.6672a20.48 20.48 0 0 0-15.68768 37.84704M914.96448 392.45824a20.48 20.48 0 0 0-5.98016 28.34432A204.04224 204.04224 0 0 1 942.08 532.48a20.48 20.48 0 0 0 40.96 0 244.9408 244.9408 0 0 0-39.7312-134.0416 20.48 20.48 0 0 0-28.34432-5.98016M233.984 480.01024a164.51584 164.51584 0 0 0-63.34464 87.57248 20.48 20.48 0 1 0 39.23968 11.69408 123.47392 123.47392 0 0 1 47.55456-65.67936 20.48 20.48 0 1 0-23.4496-33.5872" fill="#231F1F" p-id="2049"></path></svg>