<?xml version="1.0" standalone="no"?><!DOCTYPE svg PUBLIC "-//W3C//DTD SVG 1.1//EN" "http://www.w3.org/Graphics/SVG/1.1/DTD/svg11.dtd"><svg t="1576572339851" class="icon" viewBox="0 0 1228 1024" version="1.1" xmlns="http://www.w3.org/2000/svg" p-id="2582" xmlns:xlink="http://www.w3.org/1999/xlink" width="38.375" height="32"><defs><style type="text/css"></style></defs><path d="M106.125598 471.196018a20.47966 20.47966 0 0 0 20.151986-24.206958A206.680729 206.680729 0 0 1 122.87796 409.593201c0-112.924845 91.871755-204.7966 204.796601-204.796601a203.076309 203.076309 0 0 1 148.252259 63.507426 20.50014 20.50014 0 0 0 29.634068-28.261931A243.585076 243.585076 0 0 0 327.674561 163.83728C192.16065 163.83728 81.91864 274.07929 81.91864 409.593201c0 15.093509 1.372137 30.187019 4.075452 44.829976 1.82269 9.871196 10.444627 16.772842 20.131506 16.772841M499.027876 168.09705A286.571883 286.571883 0 0 1 737.267761 40.95932c158.102975 0 286.715241 128.612265 286.715241 286.715241 0 25.988689-3.461063 51.711142-10.301269 76.47105a20.47966 20.47966 0 1 0 39.484784 10.895179C1060.989748 386.7379 1064.942322 357.329108 1064.942322 327.674561c0-180.671561-147.003-327.674561-327.674561-327.674561a327.469764 327.469764 0 0 0-272.236121 145.241749 20.47966 20.47966 0 1 0 33.996236 22.855301M1124.68149 372.586455a20.47966 20.47966 0 0 0-23.633527 33.463765A205.288112 205.288112 0 0 1 1187.820282 573.430481c0 112.924845-91.871755 204.7966-204.7966 204.7966h-102.3983a20.47966 20.47966 0 1 0 0 40.959321h102.3983c135.51391 0 245.75592-110.24201 245.75592-245.755921 0-79.706837-38.911354-154.785271-104.098112-200.844026M491.511841 798.706741a20.47966 20.47966 0 0 0-20.47966-20.47966H163.83728c-67.767195 0-122.87796-55.110765-122.87796-122.87796s55.110765-122.87796 122.87796-122.87796a20.47966 20.47966 0 1 0 0-40.95932c-90.33578 0-163.83728 73.5015-163.83728 163.83728s73.5015 163.83728 163.83728 163.837281h307.194901a20.47966 20.47966 0 0 0 20.47966-20.479661" fill="#231F1F" p-id="2583"></path><path d="M593.910141 696.308441h-132.769636l110.631124-258.166594a20.47966 20.47966 0 1 0-37.641616-16.137972l-122.87796 286.71524A20.418221 20.418221 0 0 0 430.072861 737.267761h132.769636l-110.631124 258.166595a20.47966 20.47966 0 1 0 37.641615 16.137972l122.877961-286.715241A20.47966 20.47966 0 0 0 593.910141 696.308441M798.706741 778.227081h-93.32581l51.055792-136.169259a20.47966 20.47966 0 1 0-38.358403-14.376722l-61.43898 163.837281A20.47966 20.47966 0 0 0 675.828781 819.186402h85.912174l-82.799265 132.5034a20.47966 20.47966 0 1 0 34.733503 21.70844l102.3983-163.837281A20.47966 20.47966 0 0 0 798.706741 778.227081M914.969772 187.655125a20.47966 20.47966 0 0 0-5.980061 28.343849A204.182211 204.182211 0 0 1 942.064362 327.674561a20.47966 20.47966 0 1 0 40.95932 0 244.936734 244.936734 0 0 0-39.730541-134.039375 20.45918 20.45918 0 0 0-28.323369-5.980061M234.000596 275.205672a164.45167 164.45167 0 0 0-63.364069 87.571026 20.47966 20.47966 0 0 0 39.239029 11.693886 123.574269 123.574269 0 0 1 47.553771-65.67827 20.47966 20.47966 0 1 0-23.428731-33.586642" fill="#231F1F" p-id="2584"></path></svg>