<?xml version="1.0" standalone="no"?><!DOCTYPE svg PUBLIC "-//W3C//DTD SVG 1.1//EN" "http://www.w3.org/Graphics/SVG/1.1/DTD/svg11.dtd"><svg t="1576572313502" class="icon" viewBox="0 0 1228 1024" version="1.1" xmlns="http://www.w3.org/2000/svg" p-id="1913" xmlns:xlink="http://www.w3.org/1999/xlink" width="38.375" height="32"><defs><style type="text/css"></style></defs><path d="M504.411928 268.748253a20.460468 20.460468 0 0 0 0.675196-28.931102A243.356812 243.356812 0 0 0 327.367495 163.683747C191.980575 163.683747 81.841874 273.822449 81.841874 409.209369c0 15.079365 1.370851 30.15873 4.071633 44.787965a20.480929 20.480929 0 0 0 40.245741-7.42715A206.487047 206.487047 0 0 1 122.762811 409.209369c0-112.819023 91.785661-204.604684 204.604684-204.604685a202.886005 202.886005 0 0 1 148.113331 63.447913c7.795438 8.184187 20.726455 8.470634 28.931102 0.695656M498.560234 167.919064A286.323795 286.323795 0 0 1 736.576864 40.920937c157.954816 0 286.446558 128.491742 286.446558 286.446558 0 25.964334-3.457819 51.662683-10.291616 76.399389a20.460468 20.460468 0 1 0 39.447783 10.884969C1059.995488 386.375486 1063.944359 356.994253 1063.944359 327.367495c0-180.502253-146.865242-327.367495-327.367495-327.367495a327.16289 327.16289 0 0 0-271.981007 145.105642 20.440008 20.440008 0 1 0 33.964377 22.813422M1123.627545 372.237302a20.460468 20.460468 0 0 0-23.61138 33.432406A205.095736 205.095736 0 0 1 1186.707169 572.893116c0 112.819023-91.785661 204.604684-204.604684 204.604685h-61.381405c-35.39661 0-102.302342 21.38119-102.302343 102.302342a20.460468 20.460468 0 1 0 40.920937 0c0-57.759902 51.233013-61.258642 61.381406-61.381406h61.381405c135.38692 0 245.525621-110.138702 245.525621-245.525621 0-79.632143-38.87489-154.64022-104.000561-200.655814M225.065153 777.497801H163.683747c-67.70369 0-122.762811-55.059121-122.76281-122.762811s55.059121-122.762811 122.76281-122.762811a20.460468 20.460468 0 1 0 0-40.920937c-90.251126 0-163.683747 73.432621-163.683747 163.683748s73.432621 163.683747 163.683747 163.683747h61.258643c10.271155 0.122763 61.504168 3.621503 61.504168 61.381406v40.920937a20.460468 20.460468 0 1 0 40.920937 0v-40.920937c0-80.921153-66.926192-102.302342-102.302342-102.302342M757.037332 900.260611h-57.105167l28.890181-51.355776a20.440008 20.440008 0 1 0-35.642136-20.051259L664.965224 879.002185l-28.214986-50.148609a20.440008 20.440008 0 1 0-35.642136 20.07172L629.977823 900.260611H572.893116a20.460468 20.460468 0 1 0 0 40.920937h57.084707l-28.869721 51.335315a20.419547 20.419547 0 0 0 17.800608 30.486098c7.161164 0 14.097263-3.744266 17.841528-10.414378l28.214986-50.148608 28.214986 50.148608a20.440008 20.440008 0 1 0 35.642136-20.051259L699.932165 941.181548H757.037332a20.460468 20.460468 0 1 0 0-40.920937M495.347941 777.497801H552.432648a20.460468 20.460468 0 1 0 0-40.920937h-57.084707l28.869721-51.355776a20.440008 20.440008 0 1 0-35.642136-20.051259L460.36054 715.318437l-28.214986-50.148608a20.419547 20.419547 0 0 0-27.846698-7.795439 20.419547 20.419547 0 0 0-7.795438 27.867158L425.393599 736.576864H368.288432a20.460468 20.460468 0 1 0 0 40.920937h57.105167l-28.890181 51.335315a20.419547 20.419547 0 0 0 17.800607 30.486098c7.161164 0 14.117723-3.744266 17.841529-10.414379l28.214986-50.148608 28.214986 50.148608a20.440008 20.440008 0 1 0 35.642136-20.051259L495.347941 777.497801" fill="#231F1F" p-id="1914"></path><path d="M914.112348 187.479272a20.460468 20.460468 0 0 0-5.974456 28.317289A203.99087 203.99087 0 0 1 941.181548 327.367495a20.460468 20.460468 0 1 0 40.920937 0 244.707203 244.707203 0 0 0-39.693309-133.913766 20.440008 20.440008 0 0 0-28.296828-5.974457M190.077752 388.7489a20.460468 20.460468 0 0 0 19.601129-14.629235 123.376625 123.376625 0 0 1 47.509207-65.616722 20.460468 20.460468 0 0 0-23.406776-33.555168 164.297562 164.297562 0 0 0-63.304689 87.488963A20.460468 20.460468 0 0 0 190.077752 388.7489" fill="#231F1F" p-id="1915"></path></svg>