<?xml version="1.0" standalone="no"?><!DOCTYPE svg PUBLIC "-//W3C//DTD SVG 1.1//EN" "http://www.w3.org/Graphics/SVG/1.1/DTD/svg11.dtd"><svg t="1576572348834" class="icon" viewBox="0 0 1024 1024" version="1.1" xmlns="http://www.w3.org/2000/svg" p-id="2850" xmlns:xlink="http://www.w3.org/1999/xlink" width="32" height="32"><defs><style type="text/css"></style></defs><path d="M420.410097 394.52349a17.053101 17.053101 0 0 0 0.562752-24.113085A202.829582 202.829582 0 0 0 272.849615 306.955817C160.009246 306.955817 68.212404 398.752659 68.212404 511.593028c0 12.568135 1.142558 25.136271 3.393567 37.346291a17.070154 17.070154 0 0 0 33.543449-6.207329A172.099895 172.099895 0 0 1 102.318606 511.593028c0-94.030798 76.500211-170.531009 170.531009-170.53101a169.098549 169.098549 0 0 1 123.447397 52.881666 17.053101 17.053101 0 0 0 24.113085 0.579806M387.224763 291.471601a17.036048 17.036048 0 1 0 28.308147 19.014208A238.641094 238.641094 0 0 1 613.911633 204.637211c131.649939 0 238.743413 107.093474 238.743413 238.743413 0 21.640385-2.881974 43.05908-8.57771 63.676279a17.053101 17.053101 0 1 0 32.878379 9.07225C883.47 492.561767 886.761248 468.073514 886.761248 443.380624c0-150.442456-122.407158-272.849615-272.849615-272.849615a272.679084 272.679084 0 0 0-226.68687 120.940592M936.505143 480.778074a17.053101 17.053101 0 1 0-19.679278 27.864767A170.940284 170.940284 0 0 1 989.079854 648.017835c0 94.030798-76.500211 170.531009-170.53101 170.531009h-51.159302c-29.501865 0-85.265505 17.82049-85.265505 85.265505a17.053101 17.053101 0 1 0 34.106202 0c0-48.140904 42.700965-51.056984 51.159303-51.159303h51.159302c112.840369 0 204.637211-91.796842 204.637211-204.637211 0-66.370669-32.400892-128.887337-86.680912-167.239761M187.58411 818.548844H136.424807c-56.428711 0-102.318606-45.889895-102.318605-102.318605s45.889895-102.318606 102.318605-102.318606a17.053101 17.053101 0 1 0 0-34.106202c-75.221228 0-136.424807 61.203579-136.424807 136.424808s61.203579 136.424807 136.424807 136.424807h51.056985c8.560657 0.102319 51.261621 3.018399 51.261621 51.159303v34.106202a17.053101 17.053101 0 1 0 34.106202 0v-34.106202c0-67.445014-55.780693-85.265505-85.265505-85.265505M630.964734 920.86745h-47.595204l24.078978-42.803283a17.036048 17.036048 0 1 0-29.706502-16.712039L554.22578 903.149278l-23.516226-41.79715a17.018995 17.018995 0 0 0-23.20927-6.497232 17.018995 17.018995 0 0 0-6.497232 23.226324L525.064977 920.86745H477.486826a17.053101 17.053101 0 1 0 0 34.106202h47.578151l-24.061925 42.78623a17.018995 17.018995 0 0 0 14.836198 25.426173c5.968585 0 11.749587-3.137771 14.870304-8.697081l23.516226-41.79715 23.516226 41.79715a17.036048 17.036048 0 1 0 29.706502-16.712039L583.36953 954.973652H630.964734a17.053101 17.053101 0 1 0 0-34.106202M412.855573 818.548844H460.433725a17.053101 17.053101 0 1 0 0-34.106201h-47.578152l24.061926-42.803284a17.036048 17.036048 0 1 0-29.706502-16.712039L383.694771 766.724471l-23.516226-41.797151a17.036048 17.036048 0 1 0-29.706502 16.729092L354.551021 784.442643H306.955817a17.053101 17.053101 0 1 0 0 34.106201h47.595204l-24.078978 42.786231a17.018995 17.018995 0 0 0 14.836198 25.40912c5.968585 0 11.76664-3.120717 14.870304-8.680028l23.516226-41.797151 23.516226 41.797151a17.036048 17.036048 0 1 0 29.706502-16.712039L412.855573 818.548844M153.529068 306.324852a17.053101 17.053101 0 0 0 20.122659-13.267313c14.529242-71.009112 77.76214-122.543583 150.357191-122.543583a152.130713 152.130713 0 0 1 92.17201 30.780847 17.070154 17.070154 0 0 0 20.51488-27.267908A186.219862 186.219862 0 0 0 324.008918 136.407754c-88.710231 0-165.994884 63.011208-183.764216 149.794439a17.018995 17.018995 0 0 0 13.284366 20.122659M492.817564 172.236319a17.001942 17.001942 0 0 0 12.056542-4.996558l48.243222-48.243223a17.036048 17.036048 0 1 0-24.113084-24.113084l-48.243223 48.243222a17.053101 17.053101 0 0 0 12.056543 29.109643M324.008918 102.301552a17.053101 17.053101 0 0 0 17.0531-17.0531v-68.212404a17.053101 17.053101 0 1 0-34.106201 0v68.212404a17.053101 17.053101 0 0 0 17.053101 17.0531M143.143729 167.239761a17.001942 17.001942 0 0 0 24.113085 0 17.053101 17.053101 0 0 0 0-24.113085l-48.260276-48.243222a17.053101 17.053101 0 0 0-24.113084 24.113084l48.260275 48.243223M17.053101 341.062018h68.212404a17.053101 17.053101 0 1 0 0-34.106201H17.053101a17.053101 17.053101 0 1 0 0 34.106201M216.898391 109.958395a17.053101 17.053101 0 1 0 31.497077-13.062676l-13.045622-31.51413a17.053101 17.053101 0 0 0-31.514131 13.062675l13.062676 31.514131M408.848095 119.167069a17.053101 17.053101 0 0 0 22.271349-9.225727l13.062676-31.497078a17.053101 17.053101 0 0 0-31.514131-13.062675l-13.045622 31.51413a17.053101 17.053101 0 0 0 9.225728 22.27135M65.415695 235.332793l31.514131 13.045622a16.967835 16.967835 0 0 0 22.271349-9.225728 17.070154 17.070154 0 0 0-9.225727-22.288403l-31.497078-13.045622a17.070154 17.070154 0 0 0-13.062675 31.514131" fill="#231F1F" p-id="2851"></path><path d="M761.88139 326.788573a17.053101 17.053101 0 0 0-4.979505 23.601492A170.019416 170.019416 0 0 1 784.442643 443.380624a17.053101 17.053101 0 1 0 34.106201 0 203.955087 203.955087 0 0 0-33.083015-111.612546 17.036048 17.036048 0 0 0-23.584439-4.979505M158.423308 494.539927a17.053101 17.053101 0 0 0 16.33687-12.192967 102.830199 102.830199 0 0 1 39.597301-54.689295 17.053101 17.053101 0 0 0-19.508748-27.967086 136.9364 136.9364 0 0 0-52.762294 72.91906A17.053101 17.053101 0 0 0 158.423308 494.539927" fill="#231F1F" p-id="2852"></path></svg>