<?xml version="1.0" standalone="no"?><!DOCTYPE svg PUBLIC "-//W3C//DTD SVG 1.1//EN" "http://www.w3.org/Graphics/SVG/1.1/DTD/svg11.dtd"><svg t="1576572343787" class="icon" viewBox="0 0 1228 1024" version="1.1" xmlns="http://www.w3.org/2000/svg" p-id="2716" xmlns:xlink="http://www.w3.org/1999/xlink" width="38.375" height="32"><defs><style type="text/css"></style></defs><path d="M106.127296 471.203557a20.479988 20.479988 0 0 0 20.152308-24.207345A206.684036 206.684036 0 0 1 122.879926 409.599754c0-112.926652 91.873225-204.799877 204.799877-204.799877a203.079558 203.079558 0 0 1 148.254631 63.508442 20.500468 20.500468 0 0 0 29.634543-28.262383A243.588974 243.588974 0 0 0 327.679803 163.839902C192.163725 163.839902 81.919951 274.083676 81.919951 409.599754c0 15.093751 1.372159 30.187502 4.075517 44.830693 1.822719 9.871354 10.444794 16.77311 20.131828 16.77311M499.035861 168.079259C552.509108 88.473547 641.289855 40.959975 736.521798 40.959975c158.105505 0 286.719828 128.614323 286.719828 286.719828 0 25.989104-3.461118 51.711969-10.301434 76.472275a20.479988 20.479988 0 1 0 39.485417 10.895353c7.802875-28.303343 11.775993-57.712605 11.775992-87.367628 0-180.674452-147.005352-327.679803-327.679803-327.679803-108.912575 0-210.411394 54.292447-271.482717 145.244073a20.459508 20.459508 0 1 0 33.99678 22.835186M224.522105 778.239533H163.839902c-67.768279 0-122.879926-55.111647-122.879927-122.879926s55.111647-122.879926 122.879927-122.879926a20.479988 20.479988 0 1 0 0-40.959976c-90.337226 0-163.839902 73.502676-163.839902 163.839902s73.502676 163.839902 163.839902 163.839901h60.682203a20.479988 20.479988 0 1 0 0-40.959975M900.3617 860.159484h-511.999693a20.479988 20.479988 0 1 0 0 40.959975h511.999693c22.568946 0 40.959975 18.370549 40.959975 40.959976a41.021415 41.021415 0 0 1-69.959638 28.938222 20.479988 20.479988 0 1 0-28.958702 28.958703A81.448911 81.448911 0 0 0 900.3617 1023.999386c45.178853 0 81.919951-36.741098 81.919951-81.919951s-36.741098-81.919951-81.919951-81.919951M1105.161577 778.239533h-102.399939a20.479988 20.479988 0 1 0 0 40.959975h102.399939c45.178853 0 81.919951 36.741098 81.919951 81.919951s-36.741098 81.919951-81.919951 81.919951a81.366991 81.366991 0 0 1-58.490845-24.555505 20.479988 20.479988 0 0 0-29.224942 28.671983A121.937847 121.937847 0 0 0 1105.161577 1023.999386c67.747799 0 122.879926-55.111647 122.879926-122.879927s-55.132127-122.879926-122.879926-122.879926M1187.081528 573.439656a203.980678 203.980678 0 0 1-55.828447 140.513196 20.479988 20.479988 0 0 0 29.798382 28.098543A244.674413 244.674413 0 0 0 1228.041503 573.439656c0-79.708112-38.932457-154.787747-104.099777-200.84724a20.479988 20.479988 0 0 0-23.633906 33.4643A205.291397 205.291397 0 0 1 1187.081528 573.439656M982.281651 675.839594c0-79.052753-64.327641-143.359914-143.359914-143.359913s-143.359914 64.307161-143.359914 143.359913a20.479988 20.479988 0 1 0 40.959975 0c0-56.463326 45.936612-102.399939 102.399939-102.399938s102.399939 45.936612 102.399938 102.399938-45.936612 102.399939-102.399938 102.399939h-532.479681a20.479988 20.479988 0 1 0 0 40.959975h532.479681c79.032273 0 143.359914-64.307161 143.359914-143.359914" fill="#231F1F" p-id="2717"></path><path d="M914.984411 187.658127a20.479988 20.479988 0 0 0-5.980156 28.344303A204.185477 204.185477 0 0 1 942.079435 327.679803a20.479988 20.479988 0 1 0 40.959975 0 244.940653 244.940653 0 0 0-39.731176-134.041519 20.459508 20.459508 0 0 0-28.323823-5.980157M234.00434 275.210075a164.454301 164.454301 0 0 0-63.365082 87.572427 20.479988 20.479988 0 0 0 39.239656 11.694073 123.494326 123.494326 0 0 1 47.554532-65.67932 20.479988 20.479988 0 0 0-23.429106-33.58718" fill="#231F1F" p-id="2718"></path></svg>