<?xml version="1.0" standalone="no"?><!DOCTYPE svg PUBLIC "-//W3C//DTD SVG 1.1//EN" "http://www.w3.org/Graphics/SVG/1.1/DTD/svg11.dtd"><svg t="1576572359388" class="icon" viewBox="0 0 1024 1024" version="1.1" xmlns="http://www.w3.org/2000/svg" p-id="3118" xmlns:xlink="http://www.w3.org/1999/xlink" width="32" height="32"><defs><style type="text/css"></style></defs><path d="M396.60678 394.251613a17.066431 17.066431 0 1 0 24.695125-23.551674A202.988125 202.988125 0 0 0 273.062889 307.19575C160.134318 307.19575 68.265722 399.064346 68.265722 511.992917c0 12.577959 1.143451 25.155919 3.39622 37.375483a17.083497 17.083497 0 0 0 33.569669-6.21218A172.234417 172.234417 0 0 1 102.398583 511.992917c0-94.104298 76.560008-170.664306 170.664306-170.664305a169.230726 169.230726 0 0 1 123.543891 52.923001M387.527439 291.699431a17.049364 17.049364 0 1 0 28.330275 19.029071A238.82763 238.82763 0 0 1 614.391501 204.797167c131.752844 0 238.930028 107.177184 238.930028 238.930028 0 21.6573-2.884227 43.092737-8.584415 63.726052a17.066431 17.066431 0 1 0 32.904079 9.079341C884.160569 492.946781 887.45439 468.439387 887.45439 443.727195c0-150.560051-122.502839-273.062889-273.062889-273.062889a272.892225 272.892225 0 0 0-226.864062 121.035125M937.237168 481.153877a17.066431 17.066431 0 1 0-19.694661 27.886548A171.0739 171.0739 0 0 1 989.852974 648.524362c0 94.104298-76.560008 170.664306-170.664306 170.664306h-85.332153a17.066431 17.066431 0 1 0 0 34.132861h85.332153c112.928571 0 204.797167-91.868596 204.797167-204.797167 0-66.422548-32.426218-128.988082-86.748667-167.370485M409.594334 836.255098a17.066431 17.066431 0 0 0-17.066431-17.06643H136.531445c-56.472819 0-102.398583-45.925765-102.398584-102.398584s45.925765-102.398583 102.398584-102.398583a17.066431 17.066431 0 1 0 0-34.132861c-75.280025 0-136.531445 61.251419-136.531445 136.531444s61.251419 136.531445 136.531445 136.531445h255.996458a17.066431 17.066431 0 0 0 17.066431-17.066431" fill="#231F1F" p-id="3119"></path><path d="M494.926487 750.922946h-110.64167l92.192858-215.139424a17.066431 17.066431 0 1 0-31.368099-13.448348l-102.398584 238.930028A17.015231 17.015231 0 0 0 358.395042 785.055807h110.64167l-92.192858 215.139424a17.066431 17.066431 0 1 0 31.368099 13.448347l102.398584-238.930028A17.066431 17.066431 0 0 0 494.926487 750.922946M665.590793 819.188668h-77.771724l42.546611-113.474697a17.066431 17.066431 0 1 0-31.965425-11.980634l-51.199291 136.531444A17.066431 17.066431 0 0 0 563.192209 853.321529h71.593676l-68.999578 110.419806a17.066431 17.066431 0 1 0 28.944666 18.090416l85.332153-136.531444A17.066431 17.066431 0 0 0 665.590793 819.188668M153.649075 306.581359a17.066431 17.066431 0 0 0 20.138388-13.294749C188.328061 222.239059 251.610386 170.664306 324.262181 170.664306a152.249627 152.249627 0 0 1 92.244057 30.804907c7.577495 5.648989 18.261081 4.130076 23.91007-3.39622a17.066431 17.066431 0 0 0-3.379154-23.893002A186.245957 186.245957 0 0 0 324.262181 136.548511c-88.779572 0-166.124635 63.043395-183.907856 149.89446a17.032298 17.032298 0 0 0 13.29475 20.138388M493.202777 172.388015a17.015231 17.015231 0 0 0 12.065967-5.000464l48.280932-48.263866a17.066431 17.066431 0 1 0-24.131933-24.148999l-48.280932 48.280932a17.066431 17.066431 0 0 0 12.065966 29.132397M324.262181 102.41565a17.066431 17.066431 0 0 0 17.066431-17.066431V17.066431a17.066431 17.066431 0 1 0-34.132862 0v68.282788a17.066431 17.066431 0 0 0 17.066431 17.066431M143.255618 167.387551a17.015231 17.015231 0 0 0 24.131933 0 17.066431 17.066431 0 0 0 0-24.131933l-48.297998-48.280932A17.066431 17.066431 0 1 0 94.974686 119.123685l48.280932 48.263866M17.066431 341.345678L85.332153 341.328612a17.066431 17.066431 0 1 0 0-34.132862l-68.265722 0.017067a17.066431 17.066431 0 1 0 0 34.132861M217.067931 110.061411a17.066431 17.066431 0 1 0 31.521697-13.072886l-13.05582-31.538764a17.083497 17.083497 0 0 0-31.538763 13.072886l13.072886 31.538764M409.167673 119.277283a17.049364 17.049364 0 0 0 22.288759-9.232939l13.072885-31.521697a17.066431 17.066431 0 0 0-31.538763-13.072886l-13.05582 31.538764a17.066431 17.066431 0 0 0 9.232939 22.288758M65.466828 235.533808l31.538763 13.05582a16.981098 16.981098 0 0 0 22.288759-9.232939 17.083497 17.083497 0 0 0-9.232939-22.305825l-31.521697-13.055819a17.083497 17.083497 0 0 0-13.072886 31.538763M762.476919 327.044009a17.066431 17.066431 0 0 0-4.983398 23.61994A170.152313 170.152313 0 0 1 785.055807 443.727195a17.066431 17.066431 0 1 0 34.132861 0 204.11451 204.11451 0 0 0-33.108875-111.699788 17.049364 17.049364 0 0 0-23.602874-4.983398M195.001036 400.003a137.043438 137.043438 0 0 0-52.803536 72.976057 17.066431 17.066431 0 0 0 32.699281 9.744932 102.910576 102.910576 0 0 1 39.628251-54.732043 17.066431 17.066431 0 0 0-19.523996-27.988946" fill="#231F1F" p-id="3120"></path></svg>