<?xml version="1.0" standalone="no"?><!DOCTYPE svg PUBLIC "-//W3C//DTD SVG 1.1//EN" "http://www.w3.org/Graphics/SVG/1.1/DTD/svg11.dtd"><svg t="1576572319799" class="icon" viewBox="0 0 1024 1024" version="1.1" xmlns="http://www.w3.org/2000/svg" p-id="2181" xmlns:xlink="http://www.w3.org/1999/xlink" width="32" height="32"><defs><style type="text/css"></style></defs><path d="M421.307733 370.705067A202.990933 202.990933 0 0 0 273.066667 307.2C160.136533 307.2 68.266667 399.069867 68.266667 512c0 12.578133 1.143467 25.156267 3.396266 37.376a17.083733 17.083733 0 0 0 33.570134-6.212267A172.2368 172.2368 0 0 1 102.4 512c0-94.1056 76.561067-170.666667 170.666667-170.666667a169.2672 169.2672 0 0 1 123.5456 52.923734 17.066667 17.066667 0 1 0 24.695466-23.552M853.333333 443.733333c0 21.6576-2.884267 43.093333-8.584533 63.726934a17.066667 17.066667 0 0 0 32.904533 9.079466C884.1728 492.9536 887.466667 468.445867 887.466667 443.733333c0-150.562133-122.504533-273.066667-273.066667-273.066666a272.896 272.896 0 0 0-226.8672 121.0368 17.066667 17.066667 0 1 0 28.330667 19.029333A238.830933 238.830933 0 0 1 614.4 204.8c131.754667 0 238.933333 107.178667 238.933333 238.933333M937.250133 481.160533a17.066667 17.066667 0 0 0-19.694933 27.886934A171.076267 171.076267 0 0 1 989.866667 648.533333c0 94.1056-76.561067 170.666667-170.666667 170.666667h-119.466667c-29.525333 0-85.333333 17.834667-85.333333 85.333333a17.066667 17.066667 0 0 0 34.133333 0c0-48.1792 42.717867-51.0976 51.2-51.2h119.466667c112.930133 0 204.8-91.869867 204.8-204.8 0-66.423467-32.426667-128.989867-86.749867-167.3728M256 819.2H136.533333c-56.4736 0-102.4-45.9264-102.4-102.4s45.9264-102.4 102.4-102.4a17.066667 17.066667 0 0 0 0-34.133333c-75.281067 0-136.533333 61.252267-136.533333 136.533333s61.252267 136.533333 136.533333 136.533333h119.381334c8.567467 0.1024 51.285333 3.0208 51.285333 51.2v34.133334a17.066667 17.066667 0 0 0 34.133333 0v-34.133334c0-67.498667-55.825067-85.333333-85.333333-85.333333M426.666667 955.733333a17.066667 17.066667 0 0 0-17.066667 17.066667v34.133333a17.066667 17.066667 0 0 0 34.133333 0v-34.133333a17.066667 17.066667 0 0 0-17.066666-17.066667M631.466667 955.733333a17.066667 17.066667 0 0 0-17.066667 17.066667v34.133333a17.066667 17.066667 0 0 0 34.133333 0v-34.133333a17.066667 17.066667 0 0 0-17.066666-17.066667M426.666667 853.333333a17.066667 17.066667 0 0 0-17.066667 17.066667v34.133333a17.066667 17.066667 0 0 0 34.133333 0v-34.133333a17.066667 17.066667 0 0 0-17.066666-17.066667M426.666667 750.933333a17.066667 17.066667 0 0 0-17.066667 17.066667v34.133333a17.066667 17.066667 0 0 0 34.133333 0v-34.133333a17.066667 17.066667 0 0 0-17.066666-17.066667M529.066667 921.6a17.066667 17.066667 0 0 0-17.066667 17.066667v34.133333a17.066667 17.066667 0 0 0 34.133333 0v-34.133333a17.066667 17.066667 0 0 0-17.066666-17.066667M529.066667 819.2a17.066667 17.066667 0 0 0-17.066667 17.066667v34.133333a17.066667 17.066667 0 0 0 34.133333 0v-34.133333a17.066667 17.066667 0 0 0-17.066666-17.066667M153.634133 306.5856a17.066667 17.066667 0 0 0 20.155734-13.294933C188.330667 222.242133 251.613867 170.666667 324.266667 170.666667a152.337067 152.337067 0 0 1 92.2624 30.805333 17.083733 17.083733 0 0 0 20.514133-27.2896A186.248533 186.248533 0 0 0 324.266667 136.5504c-88.797867 0-166.144 63.044267-183.9104 149.896533a17.0496 17.0496 0 0 0 13.277866 20.138667M493.2096 172.3904a17.015467 17.015467 0 0 0 12.066133-5.000533l48.2816-48.264534a17.066667 17.066667 0 1 0-24.132266-24.149333l-48.2816 48.2816a17.066667 17.066667 0 0 0 12.066133 29.1328M324.266667 102.4a17.066667 17.066667 0 0 0 17.066666-17.066667V17.066667a17.066667 17.066667 0 0 0-34.133333 0v68.266666a17.066667 17.066667 0 0 0 17.066667 17.066667M143.2576 167.389867a17.015467 17.015467 0 0 0 24.132267 0 17.066667 17.066667 0 0 0 0-24.132267L119.108267 94.976a17.1008 17.1008 0 0 0-24.149334 0 17.1008 17.1008 0 0 0 0 24.149333l48.298667 48.264534M17.066667 341.3504L85.333333 341.333333a17.066667 17.066667 0 1 0 0-34.133333l-68.266666 0.017067a17.066667 17.066667 0 0 0 0 34.133333M217.070933 110.062933a17.032533 17.032533 0 0 0 22.289067 9.233067 17.066667 17.066667 0 0 0 9.233067-22.306133l-13.056-31.5392a17.066667 17.066667 0 1 0-31.5392 13.073066l13.073066 31.5392M409.173333 119.278933a17.066667 17.066667 0 0 0 22.289067-9.233066l13.073067-31.522134a17.066667 17.066667 0 0 0-31.5392-13.073066l-13.056 31.5392a17.032533 17.032533 0 0 0 9.233066 22.289066M65.467733 235.537067l31.5392 13.056a17.066667 17.066667 0 0 0 13.056-31.5392l-31.522133-13.056a17.0496 17.0496 0 1 0-13.073067 31.5392" fill="#231F1F" p-id="2182"></path><path d="M762.487467 327.048533a17.066667 17.066667 0 0 0-4.983467 23.620267A170.154667 170.154667 0 0 1 785.066667 443.733333a17.066667 17.066667 0 0 0 34.133333 0c0-39.8336-11.434667-78.455467-33.109333-111.701333a17.032533 17.032533 0 0 0-23.6032-4.983467M158.549333 494.933333c7.355733 0 14.148267-4.795733 16.366934-12.202666a102.7072 102.7072 0 0 1 39.611733-54.7328 17.066667 17.066667 0 0 0-19.524267-27.989334 137.181867 137.181867 0 0 0-52.821333 72.977067A17.083733 17.083733 0 0 0 158.549333 494.933333" fill="#231F1F" p-id="2183"></path></svg>