<?xml version="1.0" standalone="no"?><!DOCTYPE svg PUBLIC "-//W3C//DTD SVG 1.1//EN" "http://www.w3.org/Graphics/SVG/1.1/DTD/svg11.dtd"><svg t="1576572353234" class="icon" viewBox="0 0 1024 1024" version="1.1" xmlns="http://www.w3.org/2000/svg" p-id="2984" xmlns:xlink="http://www.w3.org/1999/xlink" width="32" height="32"><defs><style type="text/css"></style></defs><path d="M273.066786 341.333163a169.232982 169.232982 0 0 1 123.545538 52.923707 17.066658 17.066658 0 1 0 24.695455-23.551989A202.990832 202.990832 0 0 0 273.066786 307.199846C160.136709 307.199846 68.266889 399.069667 68.266889 511.999744c0 12.578127 1.143466 25.156254 3.396265 37.375981a17.083725 17.083725 0 0 0 33.570116-6.212263A172.236714 172.236714 0 0 1 102.400205 511.999744c0-94.105553 76.561028-170.666581 170.666581-170.666581M387.532862 291.703321a17.049591 17.049591 0 1 0 28.330653 19.029324C460.424559 244.394544 534.408522 204.799898 613.768482 204.799898c131.754601 0 238.933214 107.178613 238.933214 238.933213 0 21.657589-2.884265 43.093312-8.584529 63.726902a17.066658 17.066658 0 1 0 32.904517 9.079462c6.502397-23.586122 9.813328-48.093843 9.813329-72.806364 0-150.562058-122.504472-273.06653-273.066531-273.06653-90.760488 0-175.342846 45.243711-226.23562 121.03674M187.102029 819.19959H136.533521c-56.473572 0-102.399949-45.926377-102.399949-102.399948s45.926377-102.399949 102.399949-102.399949a17.066658 17.066658 0 1 0 0-34.133316c-75.281029 0-136.533265 61.252236-136.533265 136.533265s61.252236 136.533265 136.533265 136.533265h50.568508a17.066658 17.066658 0 1 0 0-34.133317M750.301748 887.466223h-426.666454a17.066658 17.066658 0 1 0 0 34.133316h426.666454c18.807457 0 34.133316 15.308792 34.133316 34.133316a34.184516 34.184516 0 0 1-58.299704 24.115188 17.066658 17.066658 0 1 0-24.132255 24.132255A67.874099 67.874099 0 0 0 750.301748 1023.999488c37.649048 0 68.266633-30.617585 68.266632-68.266633s-30.617585-68.266633-68.266632-68.266632M920.968329 819.19959h-85.333291a17.066658 17.066658 0 1 0 0 34.133317h85.333291c37.649048 0 68.266633 30.617585 68.266632 68.266632s-30.617585 68.266633-68.266632 68.266633a67.805833 67.805833 0 0 1-48.742376-20.462923 17.066658 17.066658 0 0 0-24.354121 23.893321A101.614883 101.614883 0 0 0 920.968329 1023.999488c56.456505 0 102.399949-45.926377 102.399949-102.399949s-45.943444-102.399949-102.399949-102.399949M989.234961 648.533009a169.983915 169.983915 0 0 1-46.52371 117.094342 17.066658 17.066658 0 0 0 24.831988 23.415454A203.895365 203.895365 0 0 0 1023.368278 648.533009c0-66.423433-32.443717-128.989802-86.749824-167.372716a17.066658 17.066658 0 1 0-19.694923 27.886919A171.076181 171.076181 0 0 1 989.234961 648.533009M818.56838 733.8663c0-65.8773-53.606373-119.466607-119.466607-119.466607s-119.466607 53.589307-119.466607 119.466607a17.066658 17.066658 0 1 0 34.133316 0c0-47.052776 38.280514-85.333291 85.333291-85.333291s85.333291 38.280514 85.333291 85.333291-38.280514 85.333291-85.333291 85.33329h-443.733111a17.066658 17.066658 0 1 0 0 34.133317h443.733111c65.860234 0 119.466607-53.589307 119.466607-119.466607M153.651379 306.585447a17.066658 17.066658 0 0 0 20.138657-13.294927C188.330829 222.242022 251.613997 170.666581 324.266761 170.666581a152.251657 152.251657 0 0 1 92.245287 30.805318c7.577596 5.649064 18.261324 4.130131 23.910388-3.396265a17.066658 17.066658 0 0 0-3.379199-23.893321A186.24844 186.24844 0 0 0 324.266761 136.550332c-88.780756 0-166.12685 63.044235-183.910309 149.896458a17.032525 17.032525 0 0 0 13.294927 20.138657M493.209609 172.390314a17.015458 17.015458 0 0 0 12.066128-5.000531l48.281576-48.264509a17.066658 17.066658 0 0 0-24.115188-24.149321l-48.298643 48.281575a17.066658 17.066658 0 0 0 12.066127 29.132786M324.266761 102.399949a17.066658 17.066658 0 0 0 17.066658-17.066658V17.066658a17.066658 17.066658 0 1 0-34.133317 0v68.266633a17.066658 17.066658 0 0 0 17.066659 17.066658M143.257784 167.389783a17.015458 17.015458 0 0 0 24.132255 0 17.066658 17.066658 0 0 0 0-24.132255l-48.298643-48.281575A17.066658 17.066658 0 1 0 94.976209 119.125274l48.281575 48.264509M17.066914 341.350229L85.333547 341.333163a17.066658 17.066658 0 1 0 0-34.133317l-68.266633 0.017067a17.066658 17.066658 0 1 0 0 34.133316M217.071081 110.062878a17.066658 17.066658 0 1 0 31.522117-13.07306l-13.055993-31.539184a17.083725 17.083725 0 0 0-31.539184 13.07306l13.07306 31.539184M409.173385 119.278874a17.066658 17.066658 0 0 0 22.289055-9.233062l13.07306-31.522118a17.066658 17.066658 0 0 0-31.539184-13.07306l-13.055993 31.539184a17.066658 17.066658 0 0 0 9.233062 22.289056M65.467957 235.536949l31.539184 13.055993a17.066658 17.066658 0 0 0 13.055993-31.539184l-31.522117-13.055993a17.083725 17.083725 0 0 0-13.07306 31.539184" fill="#231F1F" p-id="2985"></path><path d="M762.487341 327.04837a17.066658 17.066658 0 0 0-4.983464 23.620255A170.154582 170.154582 0 0 1 785.06653 443.733111a17.066658 17.066658 0 1 0 34.133316 0 204.117231 204.117231 0 0 0-33.109316-111.701277 17.049591 17.049591 0 0 0-23.603189-4.983464M195.003892 400.008333a137.045265 137.045265 0 0 0-52.80424 72.977031 17.066658 17.066658 0 0 0 32.699717 9.745061 102.911949 102.911949 0 0 1 39.62878-54.732772 17.066658 17.066658 0 0 0-19.524257-27.98932" fill="#231F1F" p-id="2986"></path></svg>