<?xml version="1.0" standalone="no"?><!DOCTYPE svg PUBLIC "-//W3C//DTD SVG 1.1//EN" "http://www.w3.org/Graphics/SVG/1.1/DTD/svg11.dtd"><svg t="1576572306599" class="icon" viewBox="0 0 1536 1024" version="1.1" xmlns="http://www.w3.org/2000/svg" p-id="1645" xmlns:xlink="http://www.w3.org/1999/xlink" width="48" height="32"><defs><style type="text/css"></style></defs><path d="M132.6592 589.0048a25.5744 25.5744 0 0 0 25.1904-30.2336C155.0336 543.4112 153.6 527.6928 153.6 512c0-141.1584 114.8416-256 256-256a253.9008 253.9008 0 0 1 185.3184 79.3856 25.6256 25.6256 0 0 0 37.0688-35.328A304.5888 304.5888 0 0 0 409.6 204.8C240.2048 204.8 102.4 342.6048 102.4 512c0 18.7904 1.7152 37.632 5.0944 56.0384a25.6 25.6 0 0 0 25.1648 20.9664M623.8208 210.0992A358.1696 358.1696 0 0 1 921.6 51.2c197.632 0 358.4 160.768 358.4 358.4 0 32.4352-4.3264 64.5888-12.8768 95.5904a25.6 25.6 0 0 0 49.3568 13.6192C1326.2592 483.3792 1331.2 446.6432 1331.2 409.6c0-225.8432-183.7568-409.6-409.6-409.6a409.2416 409.2416 0 0 0-340.2752 181.5552 25.5744 25.5744 0 1 0 42.496 28.544" fill="#231F1F" p-id="1646"></path><path d="M1405.8752 465.7408a25.6256 25.6256 0 0 0-29.5424 41.8304A256.5888 256.5888 0 0 1 1484.8 716.8c0 141.1584-114.8416 256-256 256H204.8c-84.7104 0-153.6-68.8896-153.6-153.6s68.8896-153.6 153.6-153.6a25.6 25.6 0 0 0 0-51.2c-112.9216 0-204.8 91.8784-204.8 204.8s91.8784 204.8 204.8 204.8h1024c169.3952 0 307.2-137.8048 307.2-307.2 0-99.6352-48.64-193.4848-130.1248-251.0592M1143.7056 234.5728a25.6 25.6 0 0 0-7.4752 35.4304A255.0528 255.0528 0 0 1 1177.6 409.6a25.6 25.6 0 0 0 51.2 0 306.176 306.176 0 0 0-49.664-167.552 25.6 25.6 0 0 0-35.4304-7.4752M292.48 344.0128a205.6448 205.6448 0 0 0-79.1808 109.4656 25.6 25.6 0 1 0 49.0496 14.6176 154.3424 154.3424 0 0 1 59.4432-82.0992 25.5744 25.5744 0 0 0 6.3232-35.6352 25.5488 25.5488 0 0 0-35.6352-6.3488" fill="#231F1F" p-id="1647"></path></svg>