<?xml version="1.0" standalone="no"?><!DOCTYPE svg PUBLIC "-//W3C//DTD SVG 1.1//EN" "http://www.w3.org/Graphics/SVG/1.1/DTD/svg11.dtd"><svg t="1576572310423" class="icon" viewBox="0 0 1228 1024" version="1.1" xmlns="http://www.w3.org/2000/svg" p-id="1779" xmlns:xlink="http://www.w3.org/1999/xlink" width="38.375" height="32"><defs><style type="text/css"></style></defs><path d="M505.56928 240.04608A243.58912 243.58912 0 0 0 327.68 163.84C192.16384 163.84 81.92 274.08384 81.92 409.6c0 15.09376 1.37216 30.18752 4.07552 44.83072a20.50048 20.50048 0 0 0 40.28416-7.43424A206.68416 206.68416 0 0 1 122.88 409.6c0-112.92672 91.87328-204.8 204.8-204.8a203.12064 203.12064 0 0 1 148.25472 63.50848 20.50048 20.50048 0 0 0 29.63456-28.2624M1024 327.68c0 25.98912-3.46112 51.712-10.30144 76.47232a20.48 20.48 0 0 0 39.48544 10.89536C1061.00736 386.74432 1064.96 357.33504 1064.96 327.68c0-180.67456-147.00544-327.68-327.68-327.68a327.4752 327.4752 0 0 0-272.24064 145.24416 20.48 20.48 0 1 0 33.9968 22.8352A286.59712 286.59712 0 0 1 737.28 40.96c158.1056 0 286.72 128.6144 286.72 286.72M1124.70016 372.59264a20.48 20.48 0 0 0-23.63392 33.46432A205.29152 205.29152 0 0 1 1187.84 573.44c0 112.92672-91.87328 204.8-204.8 204.8h-143.36c-35.4304 0-102.4 21.4016-102.4 102.4a20.48 20.48 0 0 0 40.96 0c0-57.81504 51.26144-61.31712 61.44-61.44h143.36c135.51616 0 245.76-110.24384 245.76-245.76 0-79.70816-38.912-154.78784-104.09984-200.84736M307.2 778.24H163.84c-67.76832 0-122.88-55.11168-122.88-122.88s55.11168-122.88 122.88-122.88a20.48 20.48 0 0 0 0-40.96c-90.33728 0-163.84 73.50272-163.84 163.84s73.50272 163.84 163.84 163.84h143.2576c10.28096 0.12288 61.5424 3.62496 61.5424 61.44v40.96a20.48 20.48 0 0 0 40.96 0v-40.96c0-80.9984-66.99008-102.4-102.4-102.4M512 942.08a20.48 20.48 0 0 0-20.48 20.48v40.96a20.48 20.48 0 0 0 40.96 0v-40.96a20.48 20.48 0 0 0-20.48-20.48M757.76 942.08a20.48 20.48 0 0 0-20.48 20.48v40.96a20.48 20.48 0 0 0 40.96 0v-40.96a20.48 20.48 0 0 0-20.48-20.48M512 819.2a20.48 20.48 0 0 0-20.48 20.48v40.96a20.48 20.48 0 0 0 40.96 0v-40.96a20.48 20.48 0 0 0-20.48-20.48M512 696.32a20.48 20.48 0 0 0-20.48 20.48v40.96a20.48 20.48 0 0 0 40.96 0v-40.96a20.48 20.48 0 0 0-20.48-20.48M634.88 901.12a20.48 20.48 0 0 0-20.48 20.48v40.96a20.48 20.48 0 0 0 40.96 0v-40.96a20.48 20.48 0 0 0-20.48-20.48M634.88 778.24a20.48 20.48 0 0 0-20.48 20.48v40.96a20.48 20.48 0 0 0 40.96 0v-40.96a20.48 20.48 0 0 0-20.48-20.48" fill="#231F1F" p-id="1780"></path><path d="M914.98496 187.65824a20.48 20.48 0 0 0-5.98016 28.34432A204.1856 204.1856 0 0 1 942.08 327.68a20.48 20.48 0 0 0 40.96 0c0-47.80032-13.7216-94.14656-39.7312-134.0416a20.48 20.48 0 0 0-28.32384-5.98016M190.2592 389.12c8.82688 0 16.97792-5.75488 19.64032-14.6432a123.24864 123.24864 0 0 1 47.53408-65.67936 20.48 20.48 0 0 0-23.42912-33.5872 164.61824 164.61824 0 0 0-63.3856 87.57248A20.50048 20.50048 0 0 0 190.2592 389.12" fill="#231F1F" p-id="1781"></path></svg>