<?xml version="1.0" standalone="no"?><!DOCTYPE svg PUBLIC "-//W3C//DTD SVG 1.1//EN" "http://www.w3.org/Graphics/SVG/1.1/DTD/svg11.dtd"><svg t="1576572337083" class="icon" viewBox="0 0 1396 1024" version="1.1" xmlns="http://www.w3.org/2000/svg" p-id="2449" xmlns:xlink="http://www.w3.org/1999/xlink" width="43.625" height="32"><defs><style type="text/css"></style></defs><path d="M256 698.181818a23.272727 23.272727 0 1 0 0 46.545455h186.181818a23.272727 23.272727 0 1 0 0-46.545455h-186.181818M954.181818 279.272727a23.272727 23.272727 0 1 0 0 46.545455h186.181818a23.272727 23.272727 0 1 0 0-46.545455h-186.181818M325.818182 442.181818a23.272727 23.272727 0 0 0-23.272727-23.272727H23.272727a23.272727 23.272727 0 1 0 0 46.545454h279.272728a23.272727 23.272727 0 0 0 23.272727-23.272727M512 721.454545a23.272727 23.272727 0 0 0 23.272727 23.272728h512a23.272727 23.272727 0 1 0 0-46.545455H535.272727a23.272727 23.272727 0 0 0-23.272727 23.272727M1000.727273 977.454545H395.636364a23.272727 23.272727 0 1 0 0 46.545455h605.090909a23.272727 23.272727 0 1 0 0-46.545455M488.727273 46.545455h605.090909a23.272727 23.272727 0 1 0 0-46.545455H488.727273a23.272727 23.272727 0 1 0 0 46.545455M1280 558.545455H768a23.272727 23.272727 0 1 0 0 46.545454h512a23.272727 23.272727 0 1 0 0-46.545454M674.909091 558.545455H162.909091a23.272727 23.272727 0 1 0 0 46.545454h512a23.272727 23.272727 0 1 0 0-46.545454M1140.363636 837.818182H674.909091a23.272727 23.272727 0 1 0 0 46.545454h465.454545a23.272727 23.272727 0 1 0 0-46.545454M605.090909 861.090909a23.272727 23.272727 0 0 0-23.272727-23.272727H162.909091a23.272727 23.272727 0 1 0 0 46.545454h418.909091a23.272727 23.272727 0 0 0 23.272727-23.272727M1373.090909 418.909091H395.636364a23.272727 23.272727 0 1 0 0 46.545454h977.454545a23.272727 23.272727 0 1 0 0-46.545454M116.363636 325.818182h744.727273a23.272727 23.272727 0 1 0 0-46.545455H116.363636a23.272727 23.272727 0 1 0 0 46.545455M651.636364 162.909091a23.272727 23.272727 0 0 0 23.272727 23.272727h512a23.272727 23.272727 0 1 0 0-46.545454H674.909091a23.272727 23.272727 0 0 0-23.272727 23.272727M256 186.181818h325.818182a23.272727 23.272727 0 1 0 0-46.545454H256a23.272727 23.272727 0 1 0 0 46.545454" fill="#231F1F" p-id="2450"></path></svg>