<?xml version="1.0" standalone="no"?><!DOCTYPE svg PUBLIC "-//W3C//DTD SVG 1.1//EN" "http://www.w3.org/Graphics/SVG/1.1/DTD/svg11.dtd"><svg t="1576572377416" class="icon" viewBox="0 0 1024 1024" version="1.1" xmlns="http://www.w3.org/2000/svg" p-id="3655" xmlns:xlink="http://www.w3.org/1999/xlink" width="32" height="32"><defs><style type="text/css"></style></defs><path d="M835.777881 529.199638h136.438736a17.054842 17.054842 0 1 0 0-34.109684h-136.438736a17.054842 17.054842 0 1 0 0 34.109684M511.735883 819.131951a17.054842 17.054842 0 0 0-17.054842 17.054842v136.438736a17.054842 17.054842 0 1 0 34.109684 0v-136.438736a17.054842 17.054842 0 0 0-17.054842-17.054842M758.962873 731.725886a17.037787 17.037787 0 1 0-24.115547 24.115547l96.462186 96.462186a16.986623 16.986623 0 0 0 24.115547 0 17.037787 17.037787 0 0 0 0-24.115547l-96.462186-96.462186M889.892894 355.496072a17.088952 17.088952 0 0 0-22.290678-9.226669l-63.017641 26.128017a17.054842 17.054842 0 0 0 13.046954 31.500294l63.034696-26.110963a17.054842 17.054842 0 0 0 9.226669-22.290679M1022.102029 301.005852a17.088952 17.088952 0 0 0-22.256568-9.294889l-69.174439 28.447476a17.071897 17.071897 0 0 0 12.961679 31.551458l69.17444-28.447476a17.054842 17.054842 0 0 0 9.294888-22.256569M394.279187 795.749763a17.054842 17.054842 0 0 0-22.273624 9.226669l-26.145073 63.051751a17.054842 17.054842 0 1 0 31.517348 13.046954l26.128018-63.034696a17.037787 17.037787 0 0 0-9.226669-22.290678M341.989041 921.785045a17.088952 17.088952 0 0 0-22.256569 9.277834l-28.430421 69.191494a17.054842 17.054842 0 1 0 31.551457 12.96168l28.430422-69.174439a17.054842 17.054842 0 0 0-9.294889-22.256569M677.611276 868.028183l-26.128018-63.068806a17.054842 17.054842 0 0 0-31.500293 13.064009l26.110963 63.051751a17.054842 17.054842 0 1 0 31.517348-13.046954M703.671075 930.99466a17.054842 17.054842 0 1 0-31.483238 13.166338l28.464531 68.082929a17.054842 17.054842 0 1 0 31.483238-13.149283l-28.464531-68.099984M880.666225 646.502841l-63.051751-26.110963a17.054842 17.054842 0 0 0-13.046954 31.500293l63.034696 26.128018a16.986623 16.986623 0 0 0 22.290678-9.22667 17.071897 17.071897 0 0 0-9.226669-22.290678M1012.807141 701.02717l-69.17444-28.413366a17.054842 17.054842 0 1 0-12.961679 31.534403l69.174439 28.430421a17.037787 17.037787 0 0 0 22.256568-9.294889 17.054842 17.054842 0 0 0-9.294888-22.256569M375.297147 478.035112c14.462506 0 27.390076 9.141395 32.182487 22.751159a17.037787 17.037787 0 1 0 32.165432-11.30736A68.270532 68.270532 0 0 0 375.297147 443.925428c-37.622981 0-68.219368 30.596387-68.219367 68.219368a68.338752 68.338752 0 0 0 45.553482 64.364973 17.054842 17.054842 0 0 0 11.324416-32.182487A34.143794 34.143794 0 0 1 375.297147 478.035112M477.626199 358.651218c0 28.208709 22.955817 51.164526 51.164526 51.164526s51.164526-22.955817 51.164526-51.164526-22.955817-51.164526-51.164526-51.164526-51.164526 22.955817-51.164526 51.164526z m68.219368 0a17.071897 17.071897 0 0 1-34.109684 0 17.071897 17.071897 0 0 1 34.109684 0zM358.242306 68.718904h17.054841v17.054842a17.054842 17.054842 0 1 0 34.109684 0V68.718904h17.054842a17.054842 17.054842 0 1 0 0-34.109684h-17.054842V17.554378a17.054842 17.054842 0 1 0-34.109684 0v17.054842h-17.054841a17.054842 17.054842 0 1 0 0 34.109684M85.364834 614.473847a17.054842 17.054842 0 0 0 17.054842-17.054842v-17.054841h17.054842a17.054842 17.054842 0 1 0 0-34.109684H102.419676v-17.054842a17.054842 17.054842 0 1 0-34.109684 0v17.054842H51.25515a17.054842 17.054842 0 1 0 0 34.109684h17.054842v17.054841a17.054842 17.054842 0 0 0 17.054842 17.054842M17.145466 205.15764h51.164526v51.164526a17.054842 17.054842 0 1 0 34.109684 0v-51.164526h51.164526a17.054842 17.054842 0 1 0 0-34.109684H102.419676V119.88343a17.054842 17.054842 0 1 0-34.109684 0v51.164526H17.145466a17.054842 17.054842 0 1 0 0 34.109684M529.302371 136.938272a17.054842 17.054842 0 0 0 0-34.109684h-0.187604a16.986623 16.986623 0 0 0-16.952513 17.054842c0 9.414273 7.708789 17.054842 17.140117 17.054842M154.095847 307.486692h-0.187603a16.986623 16.986623 0 0 0-16.952513 17.054842c0 9.414273 7.708789 17.054842 17.140116 17.054842a17.054842 17.054842 0 0 0 0-34.109684" fill="#231F1F" p-id="3656"></path><path d="M750.503671 512.144796c0 131.66338-107.104408 238.767788-238.767788 238.767787-42.722379 0-84.609071-11.409689-121.157597-33.001119a17.054842 17.054842 0 1 0-17.361829 29.385493A272.672814 272.672814 0 0 0 511.735883 785.022267c150.457816 0 272.877472-122.419656 272.877472-272.877471 0-67.144913-24.354314-130.418377-68.458136-180.320845l302.228855-302.211799A17.037787 17.037787 0 1 0 994.268527 5.496605L331.31271 668.452422c-66.95731-77.036721-77.20727-188.217236-25.735757-276.868304A85.547087 85.547087 0 0 0 358.242306 409.815744c47.020199 0 85.27421-38.254011 85.274209-85.27421 0-13.422161-3.462133-26.298566-9.363108-38.049353C458.968202 277.96476 485.164439 273.377008 511.735883 273.377008c42.449502 0 84.131535 11.273251 120.509514 32.608858a17.054842 17.054842 0 0 0 17.2595-29.419603A272.536375 272.536375 0 0 0 511.735883 239.267324c-37.520652 0-74.376166 7.964611-108.400575 22.699995-0.699249 0.204658-1.347333 0.511645-2.029527 0.818632a271.973565 271.973565 0 0 0-63.819218 39.362575 17.054842 17.054842 0 0 0 21.779033 26.230347 237.505729 237.505729 0 0 1 43.609231-28.481586c4.144327 7.50413 6.532004 15.895113 6.532004 24.644247 0 28.208709-22.955817 51.164526-51.164525 51.164526a51.369184 51.369184 0 0 1-40.999841-20.551085 17.088952 17.088952 0 0 0-28.396312-0.699248c-73.301711 104.699675-64.757235 244.088898 18.402175 338.078132L5.087693 994.67744a17.037787 17.037787 0 1 0 24.115546 24.115546l662.836434-662.836433A236.891755 236.891755 0 0 1 750.503671 512.144796" fill="#231F1F" p-id="3657"></path><path d="M684.876639 586.520961a17.071897 17.071897 0 0 0 21.489101-10.949208c11.102702-34.194958 13.029899-70.879923 5.559878-106.098172a17.054842 17.054842 0 0 0-33.376325 7.077759 171.264723 171.264723 0 0 1-4.621863 88.480521 17.054842 17.054842 0 0 0 10.949209 21.4891" fill="#231F1F" p-id="3658"></path></svg>