<?xml version="1.0" standalone="no"?><!DOCTYPE svg PUBLIC "-//W3C//DTD SVG 1.1//EN" "http://www.w3.org/Graphics/SVG/1.1/DTD/svg11.dtd"><svg t="1576572298981" class="icon" viewBox="0 0 1024 1024" version="1.1" xmlns="http://www.w3.org/2000/svg" p-id="1462" xmlns:xlink="http://www.w3.org/1999/xlink" width="32" height="32"><defs><style type="text/css"></style></defs><path d="M51.196221 495.021761a17.063814 17.063814 0 0 0 0 34.127628h136.510513a17.063814 17.063814 0 0 0 0-34.127628H51.196221M836.131673 495.021761a17.063814 17.063814 0 0 0 0 34.127628h136.510513a17.063814 17.063814 0 0 0 0-34.127628h-136.510513M511.919204 204.93692a17.063814 17.063814 0 0 0 17.063814-17.063814V68.426407a17.063814 17.063814 0 0 0-34.127629 0v119.446699a17.063814 17.063814 0 0 0 17.063815 17.063814M276.62627 297.405729a16.995559 16.995559 0 0 0 12.064117 4.982634 17.063814 17.063814 0 0 0 12.064116-29.127931l-96.512933-96.512933a17.04675 17.04675 0 1 0-24.128233 24.128233l96.512933 96.529997M759.276254 731.765119a17.063814 17.063814 0 0 0-24.128233 24.145297l96.512932 96.512933a16.978495 16.978495 0 0 0 12.064117 4.999697 17.04675 17.04675 0 0 0 12.064117-29.127931l-96.512933-96.529996M300.754503 731.765119a17.063814 17.063814 0 0 0-24.128233 0l-96.512933 96.529996a17.04675 17.04675 0 1 0 24.128233 24.128234l96.512933-96.512933a17.063814 17.063814 0 0 0 0-24.145297M735.148021 297.405729a16.995559 16.995559 0 0 0 12.064116 4.982634 16.995559 16.995559 0 0 0 12.064117-4.982634l84.448816-84.46588a17.04675 17.04675 0 1 0-24.128233-24.128233l-84.448816 84.448816a17.063814 17.063814 0 0 0 0 24.145297M795.690433 394.550023a17.063814 17.063814 0 0 0 22.302405 9.231524l63.050794-26.1247a17.063814 17.063814 0 0 0-13.070882-31.533929l-63.050793 26.141764a17.04675 17.04675 0 0 0-9.231524 22.285341M937.576048 352.863125c2.150041 0 4.351273-0.426595 6.484249-1.29685l69.193767-28.462442a17.063814 17.063814 0 0 0-12.968499-31.568056l-69.21083 28.462442a17.063814 17.063814 0 0 0 6.501313 32.864906M629.471819 228.331409a16.978495 16.978495 0 0 0 22.285342-9.231523l26.124699-63.084921a17.063814 17.063814 0 0 0-31.533928-13.036754l-26.107636 63.067857a17.04675 17.04675 0 0 0 9.231523 22.285341M681.755346 102.229823a17.04675 17.04675 0 0 0 22.268278-9.282715l28.445378-69.227894a17.063814 17.063814 0 1 0-31.568056-12.968499l-28.445379 69.21083a17.063814 17.063814 0 0 0 9.299779 22.268278M345.956547 156.032029l26.141763 63.067857a17.029687 17.029687 0 0 0 22.285342 9.231523 17.063814 17.063814 0 0 0 9.231523-22.302405l-26.124699-63.067857a17.063814 17.063814 0 0 0-31.533929 13.070882M319.848911 92.930044a17.080878 17.080878 0 0 0 31.568057-12.985563L322.937462 10.750715a17.04675 17.04675 0 1 0-31.568056 12.968499l28.479505 69.21083M142.794776 377.656847l63.084921 26.1247a17.080878 17.080878 0 0 0 13.053817-31.516865l-63.067857-26.141764a17.063814 17.063814 0 0 0-13.070881 31.533929M10.584343 323.103833l69.227895 28.445378a16.995559 16.995559 0 0 0 22.251213-9.299778 17.063814 17.063814 0 0 0-9.282715-22.268278L23.552842 291.535777a17.063814 17.063814 0 1 0-12.968499 31.568056M228.182102 629.638191a17.063814 17.063814 0 0 0-22.285342-9.248587l-63.084921 26.124699a17.063814 17.063814 0 1 0 13.036754 31.533929l63.101985-26.1247a17.04675 17.04675 0 0 0 9.231524-22.285341M79.77811 672.604875L10.584343 701.067317a17.063814 17.063814 0 0 0 12.968499 31.568056l69.21083-28.479506a17.063814 17.063814 0 1 0-12.985562-31.550992M381.841748 825.291884a17.029687 17.029687 0 0 0-22.23415 9.368034l-13.685179 33.581586a17.097942 17.097942 0 0 0 31.619248 12.88318l13.668115-33.581586a17.063814 17.063814 0 0 0-9.368034-22.251214M342.083061 921.941327a17.063814 17.063814 0 0 0-22.268277 9.282715l-28.445378 69.227894a17.063814 17.063814 0 1 0 31.568056 12.968499l28.445378-69.21083a17.063814 17.063814 0 0 0-9.299779-22.268278M677.830669 868.019675l-23.292107-54.911354a17.063814 17.063814 0 0 0-31.414481 13.309775l23.275042 54.928418a17.063814 17.063814 0 1 0 31.431546-13.326839M703.955368 931.155787a17.080878 17.080878 0 0 0-31.499801 13.173265l28.479506 68.118746a17.063814 17.063814 0 0 0 31.499801-13.156201l-28.479506-68.13581M881.043632 646.514303l-63.067857-26.124699a17.063814 17.063814 0 1 0-13.070882 31.516864l63.067857 26.141764a16.995559 16.995559 0 0 0 22.302405-9.231524 17.080878 17.080878 0 0 0-9.231523-22.302405M1013.254064 701.067317l-69.21083-28.428314a17.04675 17.04675 0 1 0-12.968499 31.550992l69.21083 28.445378a17.012623 17.012623 0 0 0 22.268278-9.299779 17.063814 17.063814 0 0 0-9.299779-22.268277M577.529569 861.296532a17.04675 17.04675 0 0 0-14.31654-7.934674c-6.057654 0.290085-11.22799 2.883785-14.401859 7.746972l-8.071184 12.30301C522.771789 900.679815 511.919204 917.146396 511.919204 938.680929c0 28.223549 22.967894 51.191442 51.191442 51.191443s51.191442-22.967894 51.191443-51.191443c0-20.613088-9.862885-35.799882-26.210019-60.969008a1516.085761 1516.085761 0 0 1-10.562501-16.415389zM563.110646 955.744743c-9.402162 0-17.063814-7.661653-17.063814-17.063814 0-9.368034 4.982634-18.548366 16.944367-36.960221C575.157699 920.593286 580.17446 929.432342 580.17446 938.680929c0 9.402162-7.661653 17.063814-17.063814 17.063814zM597.238274 682.723717c28.223549 0 51.191442-22.967894 51.191443-51.191443a17.063814 17.063814 0 0 0-34.127628 0c0 9.402162-7.661653 17.063814-17.063815 17.063814-9.402162 0-17.063814-7.661653-17.063814-17.063814a17.063814 17.063814 0 0 0-34.127628 0c0 28.223549 22.967894 51.191442 51.191442 51.191443M460.727761 648.596088c-9.419225 0-17.063814 7.661653-17.063814 17.080878V665.659903a17.063814 17.063814 0 0 0-34.127628 0c0 18.821387 15.306241 34.127628 34.127628 34.127628s34.127628-15.306241 34.127628-34.127628a17.063814 17.063814 0 0 0-17.063814-17.063815M392.472504 580.340832c-9.419225 0-17.063814 7.661653-17.063814 17.080878V597.404646a17.063814 17.063814 0 0 0-34.127628 0c0 18.821387 15.306241 34.127628 34.127628 34.127628s34.127628-15.306241 34.127629-34.127628a17.063814 17.063814 0 0 0-17.063815-17.063814" fill="#000000" p-id="1463"></path><path d="M509.427887 785.089538c8.241822 0.085319 16.347134-0.255957 25.510402-1.126212l12.900243 25.834615c5.784633 11.569266 24.759594 11.569266 30.544228 0l19.265046-38.547156a270.461455 270.461455 0 0 0 67.726278-33.547459l1.911148 3.839358a17.080878 17.080878 0 0 0 30.544227 0l33.564522-67.163172A270.359072 270.359072 0 0 0 784.94023 512.085575c0-150.536969-122.484058-273.021027-273.021026-273.021027s-273.021027 122.484058-273.021027 273.021027c0 69.859255 26.431848 136.203365 74.500613 187.155914l29.673972 59.365009a17.080878 17.080878 0 0 0 30.544228 0l4.351272-8.719609c12.985563 7.320376 26.61955 13.565732 40.782516 18.684877-5.613995 10.784331-9.21446 21.415087-9.214459 33.59865 0 28.223549 22.967894 51.191442 51.191442 51.191442s51.191442-22.967894 51.191443-51.191442c0-5.989399-0.870255-11.569266-2.491317-17.080878z m-26.056444-35.97052a17.063814 17.063814 0 0 0-16.5519 25.885806c8.207695 13.292711 10.972033 20.152365 10.972032 27.165592 0 9.402162-7.661653 17.063814-17.063814 17.063814-9.402162 0-17.063814-7.661653-17.063814-17.063814 0-8.173567 3.53221-16.125304 15.101476-34.093501a17.029687 17.029687 0 0 0-9.811694-25.698104 238.279101 238.279101 0 0 1-68.528277-30.936695 16.978495 16.978495 0 0 0-21.619853 2.303615l-16.022921-32.062907a17.558665 17.558665 0 0 0-2.969104-4.180634A237.698931 237.698931 0 0 1 273.025805 512.085575c0-131.732645 107.160753-238.893398 238.893399-238.893398s238.893398 107.160753 238.893398 238.893398c0 52.16408-16.534836 101.717396-47.829871 143.318975a17.063814 17.063814 0 0 0-2.184168 3.873486l-19.350366 38.717794a17.04675 17.04675 0 0 0-20.544832 0.58017 237.135825 237.135825 0 0 1-80.182863 42.23294 17.029687 17.029687 0 0 0-10.357735 8.719609l-7.252121 14.487178-2.986167-5.955271a17.063814 17.063814 0 0 0-17.439218-9.299778c-22.916702 2.934976-37.813412 2.934976-59.313818 0.35834z" fill="#000000" p-id="1464"></path><path d="M604.746353 368.868983a171.644907 171.644907 0 0 1 59.330882 65.883386 17.063814 17.063814 0 1 0 30.407716-15.493943 205.618961 205.618961 0 0 0-71.139041-78.988396 17.063814 17.063814 0 1 0-18.599557 28.598953" fill="#000000" p-id="1465"></path></svg>