<?xml version="1.0" standalone="no"?><!DOCTYPE svg PUBLIC "-//W3C//DTD SVG 1.1//EN" "http://www.w3.org/Graphics/SVG/1.1/DTD/svg11.dtd"><svg t="1576572364985" class="icon" viewBox="0 0 1024 1024" version="1.1" xmlns="http://www.w3.org/2000/svg" p-id="3252" xmlns:xlink="http://www.w3.org/1999/xlink" width="32" height="32"><defs><style type="text/css"></style></defs><path d="M51.20454 494.935802a17.066587 17.066587 0 1 0 0 34.133174h136.532696a17.066587 17.066587 0 1 0 0-34.133174H51.20454M836.267543 494.935802a17.066587 17.066587 0 1 0 0 34.133174h136.532696a17.066587 17.066587 0 1 0 0-34.133174h-136.532696M512.002389 204.803823a17.066587 17.066587 0 0 0 17.066587-17.066587V68.271127a17.066587 17.066587 0 1 0-34.133174 0v119.466109a17.066587 17.066587 0 0 0 17.066587 17.066587M276.671221 297.287658a16.998321 16.998321 0 0 0 12.066077 4.983443 17.066587 17.066587 0 0 0 12.066077-29.132664l-96.528616-96.528616a17.04952 17.04952 0 1 0-24.132154 24.132154l96.528616 96.545683M735.267481 297.287658a16.998321 16.998321 0 0 0 12.066077 4.983443 16.998321 16.998321 0 0 0 12.066077-4.983443l84.462539-84.479606a17.04952 17.04952 0 1 0-24.132154-24.132154l-84.462539 84.462539a17.066587 17.066587 0 0 0 0 24.149221M795.819732 394.447738a17.04952 17.04952 0 0 0 22.288962 9.233023l63.078106-26.128944a17.066587 17.066587 0 0 0-13.073006-31.539053l-63.061039 26.146011a17.066587 17.066587 0 0 0-9.233023 22.288963M937.711336 352.754066a17.04952 17.04952 0 0 0 6.485303-1.297061l69.222077-28.467067a17.066587 17.066587 0 1 0-12.970606-31.573186l-69.222077 28.467067a17.083654 17.083654 0 0 0 6.485303 32.870247M629.574107 228.202114a16.998321 16.998321 0 0 0 22.288963-9.233024l26.128945-63.095172a17.083654 17.083654 0 0 0-9.233024-22.288963 17.10072 17.10072 0 0 0-22.306029 9.25009l-26.111878 63.078106a17.066587 17.066587 0 0 0 9.233023 22.288963M681.86613 102.080036a17.04952 17.04952 0 0 0 22.271896-9.284224l28.450001-69.239143a17.066587 17.066587 0 1 0-31.573186-12.970606l-28.450001 69.222077a17.066587 17.066587 0 0 0 9.30129 22.271896M346.012764 155.890985l26.146011 63.078105a17.066587 17.066587 0 1 0 31.521987-13.073006l-26.128945-63.078105a17.10072 17.10072 0 0 0-22.306029-9.233024 17.10072 17.10072 0 0 0-9.233024 22.30603M319.900886 92.778746a17.083654 17.083654 0 0 0 31.573186-12.987673L322.989938 10.586063a17.066587 17.066587 0 0 0-31.573186 12.970606l28.484134 69.222077M142.817979 377.551817l63.095172 26.128944a17.066587 17.066587 0 0 0 13.055939-31.521986l-63.078105-26.146011a17.066587 17.066587 0 0 0-13.073006 31.539053M10.586063 322.989938l69.239143 28.450001a17.04952 17.04952 0 1 0 12.95354-31.573186L23.556669 291.416752a17.083654 17.083654 0 0 0-12.970606 31.573186M187.737236 887.467304a17.066587 17.066587 0 1 0 0 34.133174h136.532696a17.066587 17.066587 0 1 0 0-34.133174h-136.532696M238.936997 699.734847a17.066587 17.066587 0 0 0-17.066587-17.066587H17.071366a17.066587 17.066587 0 1 0 0 34.133174h204.799044a17.066587 17.066587 0 0 0 17.066587-17.066587M375.469693 904.533891a17.066587 17.066587 0 0 0 17.066587 17.066587h375.464915a17.066587 17.066587 0 1 0 0-34.133174H392.53628a17.066587 17.066587 0 0 0-17.066587 17.066587M938.667065 785.067782H563.20215a17.066587 17.066587 0 1 0 0 34.133174h375.464915a17.066587 17.066587 0 1 0 0-34.133174M494.935802 785.067782H119.470888a17.066587 17.066587 0 1 0 0 34.133174h375.464914a17.066587 17.066587 0 1 0 0-34.133174M836.267543 989.866826H494.935802a17.066587 17.066587 0 1 0 0 34.133174h341.331741a17.066587 17.066587 0 1 0 0-34.133174M426.669454 989.866826H119.470888a17.066587 17.066587 0 1 0 0 34.133174h307.198566a17.066587 17.066587 0 1 0 0-34.133174M1006.933413 682.66826H290.136758a17.066587 17.066587 0 1 0 0 34.133174h716.796655a17.066587 17.066587 0 1 0 0-34.133174M730.608303 646.384696a17.066587 17.066587 0 0 0 23.056959-7.116767A273.884589 273.884589 0 0 0 785.067782 512.002389c0-150.561431-122.503962-273.065392-273.065393-273.065392s-273.065392 122.503962-273.065392 273.065392c0 44.799791 11.093282 89.25825 32.085184 128.545534a17.066587 17.066587 0 1 0 30.105459-16.093792A239.341816 239.341816 0 0 1 273.070171 512.002389c0-131.754052 107.178167-238.932218 238.932218-238.932218s238.932218 107.178167 238.932219 238.932218c0 38.792352-9.506089 77.277506-27.460139 111.325347a17.066587 17.066587 0 0 0 7.133834 23.05696" fill="#231F1F" p-id="3253"></path><path d="M623.447203 340.158925a17.066587 17.066587 0 0 0-18.60258 28.603599c25.207349 16.383924 45.738453 39.167817 59.357589 65.894093a17.032454 17.032454 0 0 0 22.95456 7.458098 17.066587 17.066587 0 0 0 7.441032-22.954559 205.652374 205.652374 0 0 0-71.150601-79.001231" fill="#231F1F" p-id="3254"></path></svg>