<?xml version="1.0" standalone="no"?><!DOCTYPE svg PUBLIC "-//W3C//DTD SVG 1.1//EN" "http://www.w3.org/Graphics/SVG/1.1/DTD/svg11.dtd"><svg t="1576572369141" class="icon" viewBox="0 0 1024 1024" version="1.1" xmlns="http://www.w3.org/2000/svg" p-id="3386" xmlns:xlink="http://www.w3.org/1999/xlink" width="32" height="32"><defs><style type="text/css"></style></defs><path d="M543.263247 748.91298c-10.290166 1.348131-20.819241 2.030729-31.314186 2.047794-131.741427 0-238.909323-107.167896-238.909323-238.909323s107.167896-238.909323 238.909323-238.909323 238.909323 107.167896 238.909323 238.909323c0 10.887439-0.733793 21.826073-2.201379 32.491668a17.064952 17.064952 0 0 0 33.839799 4.624602C784.13504 536.949215 784.988287 524.474736 784.988287 512.051451c0-150.547003-122.492223-273.039226-273.039226-273.039226s-273.039226 122.492223-273.039226 273.039226 122.492223 273.039226 273.056291 273.039226c11.979596 0 24.010387-0.784988 35.734009-2.337898a17.064952 17.064952 0 1 0-4.436888-33.839799M51.195367 494.986499a17.064952 17.064952 0 1 0 0 34.129903h136.519613a17.064952 17.064952 0 1 0 0-34.129903H51.195367M836.183142 494.986499a17.064952 17.064952 0 1 0 0 34.129903h136.519613a17.064952 17.064952 0 1 0 0-34.129903h-136.519613M511.949061 819.22058a17.064952 17.064952 0 0 0-17.064951 17.064952v136.519613a17.064952 17.064952 0 1 0 34.129903 0v-136.519613a17.064952 17.064952 0 0 0-17.064952-17.064952M511.949061 204.882321a17.064952 17.064952 0 0 0 17.064952-17.064951V68.362708a17.064952 17.064952 0 1 0-34.129903 0v119.454662a17.064952 17.064952 0 0 0 17.064951 17.064951M276.640443 297.357294a16.996692 16.996692 0 0 0 12.064921 4.982966 17.064952 17.064952 0 0 0 12.064921-29.129872l-96.519367-96.519367a17.047887 17.047887 0 1 0-24.129841 24.129842l96.519366 96.536431M300.770285 731.745638a17.064952 17.064952 0 0 0-24.129842 0l-96.519366 96.536432a17.047887 17.047887 0 1 0 24.129841 24.129841l96.519367-96.519366a17.064952 17.064952 0 0 0 0-24.146907M735.192759 297.357294a16.996692 16.996692 0 0 0 12.06492 4.982966 16.996692 16.996692 0 0 0 12.064921-4.982966l84.454446-84.47151a17.047887 17.047887 0 1 0-24.129842-24.129842l-84.454445 84.454446a17.064952 17.064952 0 0 0 0 24.146906M795.739207 394.508064a17.047887 17.047887 0 0 0 22.303892 9.232139l63.054996-26.126441a17.064952 17.064952 0 0 0-13.071753-31.536031l-63.054996 26.143506a17.064952 17.064952 0 0 0-9.232139 22.286827M937.617215 352.818387a17.047887 17.047887 0 0 0 6.484681-1.296936l69.215444-28.46434a17.064952 17.064952 0 1 0-12.969363-31.57016l-69.198379 28.464339a17.064952 17.064952 0 0 0 6.467617 32.867097M629.509513 228.27837a16.996692 16.996692 0 0 0 22.286827-9.232139l26.126441-63.089126a17.082017 17.082017 0 0 0-9.232139-22.286827 17.082017 17.082017 0 0 0-22.303892 9.249204l-26.109376 63.072061a17.064952 17.064952 0 0 0 9.232139 22.286827M681.796525 102.168377a17.047887 17.047887 0 0 0 22.269762-9.283333l28.447274-69.232509a17.064952 17.064952 0 1 0-31.57016-12.969363l-28.447275 69.215444a17.064952 17.064952 0 0 0 9.300399 22.269761M345.975342 155.97417l26.143505 63.072061a17.064952 17.064952 0 1 0 31.518966-13.071753l-26.126441-63.072061a17.099082 17.099082 0 0 0-22.303892-9.232139 17.116146 17.116146 0 0 0-9.232138 22.303892M319.865966 92.867979a17.082017 17.082017 0 0 0 31.57016-12.986428L322.954722 10.683172a17.064952 17.064952 0 0 0-31.570161 12.969363l28.481405 69.215444M142.800027 377.613762l63.089127 26.126441a17.064952 17.064952 0 0 0 13.054688-31.518966l-63.072062-26.143506a17.064952 17.064952 0 0 0-13.071753 31.536031M10.580782 323.057111l69.232509 28.447275a17.013757 17.013757 0 0 0 22.252697-9.300399 17.064952 17.064952 0 0 0-9.283334-22.269762L23.550145 291.486951a17.064952 17.064952 0 0 0-12.969363 31.57016M228.193045 629.611903a17.116146 17.116146 0 0 0-22.303891-9.249204l-63.089127 26.126441a17.064952 17.064952 0 1 0 13.071753 31.53603l63.089126-26.12644a17.064952 17.064952 0 0 0 9.232139-22.286827M79.779161 672.581451L10.563717 701.04579a17.064952 17.064952 0 1 0 13.003493 31.570161l69.215444-28.481405a17.082017 17.082017 0 0 0-13.003493-31.553095M394.422739 795.824532a17.064952 17.064952 0 0 0-22.286827 9.232138l-26.16057 63.089127a17.064952 17.064952 0 1 0 31.53603 13.054688l26.143506-63.072062a17.047887 17.047887 0 0 0-9.232139-22.303891M342.101598 921.934524a17.099082 17.099082 0 0 0-22.269762 9.283334l-28.447275 69.232509a17.064952 17.064952 0 1 0 31.570161 12.969363l28.447274-69.215444a17.064952 17.064952 0 0 0-9.300398-22.269762M1006.832659 785.090677h-17.064952v-17.064952a17.064952 17.064952 0 1 0-34.129903 0v17.064952h-34.129903a17.064952 17.064952 0 1 0-34.129904 0h-10.000061l-17.064952-17.064952 51.194855-51.194855H938.572852a17.064952 17.064952 0 1 0 0-34.129903h-17.064951v-17.064951a17.064952 17.064952 0 1 0-34.129904 0v27.065013l-51.194855 51.194855-17.064951-17.064952V716.83087a17.064952 17.064952 0 1 0 0-34.129903v-34.129903h17.064951a17.064952 17.064952 0 1 0 0-34.129903h-17.064951v-17.064952a17.064952 17.064952 0 1 0-34.129904 0v17.064952h-17.064951a17.064952 17.064952 0 1 0 0 34.129903h17.064951v34.129903a17.064952 17.064952 0 1 0 0 34.129903v10.000062l-17.064951 17.064952-51.194855-51.194855V665.636016a17.064952 17.064952 0 1 0-34.129903 0v17.064951h-17.064952a17.064952 17.064952 0 1 0 0 34.129903h27.065013l51.194855 51.194855-17.064952 17.064952H716.728481a17.064952 17.064952 0 1 0-34.129903 0h-34.129904v-17.064952a17.064952 17.064952 0 1 0-34.129903 0v17.064952h-17.064952a17.064952 17.064952 0 1 0 0 34.129903h17.064952v17.064952a17.064952 17.064952 0 1 0 34.129903 0v-17.064952h34.129904a17.064952 17.064952 0 1 0 34.129903 0h10.000061l17.064952 17.064952-51.194855 51.194855H665.533626a17.064952 17.064952 0 1 0 0 34.129903h17.064952v17.064952a17.064952 17.064952 0 1 0 34.129903 0v-27.065013l51.194855-51.194855 17.064951 17.064951V887.480387a17.064952 17.064952 0 1 0 0 34.129903v34.129903h-17.064951a17.064952 17.064952 0 1 0 0 34.129904h17.064951v17.064951a17.064952 17.064952 0 1 0 34.129904 0v-17.064951h17.064951a17.064952 17.064952 0 1 0 0-34.129904h-17.064951v-34.129903a17.064952 17.064952 0 1 0 0-34.129903v-10.000062l17.064951-17.064951 51.194855 51.194855V938.675242a17.064952 17.064952 0 1 0 34.129904 0v-17.064952h17.064951a17.064952 17.064952 0 1 0 0-34.129903h-27.065013l-51.194855-51.194855 17.064952-17.064952H887.377997a17.064952 17.064952 0 1 0 34.129904 0h34.129903v17.064952a17.064952 17.064952 0 1 0 34.129903 0v-17.064952h17.064952a17.064952 17.064952 0 1 0 0-34.129903z m-204.77942 61.194917L757.923274 802.155629 802.053239 758.025664 846.183204 802.155629 802.053239 846.285594z" fill="#231F1F" p-id="3387"></path><path d="M623.383195 340.224453a17.064952 17.064952 0 1 0-18.600797 28.600859c25.204934 16.382354 45.73407 39.164064 59.351902 65.887778a17.030822 17.030822 0 0 0 22.95236 7.457384 17.064952 17.064952 0 0 0 7.440319-22.95236 205.632667 205.632667 0 0 0-71.143784-78.993661" fill="#231F1F" p-id="3388"></path></svg>