<?xml version="1.0" standalone="no"?><!DOCTYPE svg PUBLIC "-//W3C//DTD SVG 1.1//EN" "http://www.w3.org/Graphics/SVG/1.1/DTD/svg11.dtd"><svg t="1576572385129" class="icon" viewBox="0 0 1024 1024" version="1.1" xmlns="http://www.w3.org/2000/svg" p-id="3924" xmlns:xlink="http://www.w3.org/1999/xlink" width="32" height="32"><defs><style type="text/css"></style></defs><path d="M511.919204 239.064548c-150.536969 0-273.021027 122.484058-273.021027 273.021027s122.484058 273.021027 273.021027 273.021027 273.021027-122.484058 273.021026-273.021027-122.484058-273.021027-273.021026-273.021027z m0 511.914425c-131.732645 0-238.893398-107.160753-238.893399-238.893398s107.160753-238.893398 238.893399-238.893398 238.893398 107.160753 238.893398 238.893398-107.160753 238.893398-238.893398 238.893398zM51.196221 495.021761a17.063814 17.063814 0 0 0 0 34.127628h136.510513a17.063814 17.063814 0 0 0 0-34.127628H51.196221M836.131673 495.021761a17.063814 17.063814 0 0 0 0 34.127628h136.510513a17.063814 17.063814 0 0 0 0-34.127628h-136.510513M511.919204 819.23423a17.063814 17.063814 0 0 0-17.063815 17.063814v136.510514a17.063814 17.063814 0 0 0 34.127629 0v-136.510514a17.063814 17.063814 0 0 0-17.063814-17.063814M511.919204 204.93692a17.063814 17.063814 0 0 0 17.063814-17.063814V68.426407a17.063814 17.063814 0 0 0-34.127629 0v119.446699a17.063814 17.063814 0 0 0 17.063815 17.063814M276.62627 297.405729a16.995559 16.995559 0 0 0 12.064117 4.982634 17.063814 17.063814 0 0 0 12.064116-29.127931l-96.512933-96.512933a17.04675 17.04675 0 1 0-24.128233 24.128233l96.512933 96.529997M759.276254 731.765119a17.063814 17.063814 0 0 0-24.128233 24.145297l96.512932 96.512933a16.978495 16.978495 0 0 0 12.064117 4.999697 17.04675 17.04675 0 0 0 12.064117-29.127931l-96.512933-96.529996M300.754503 731.765119a17.063814 17.063814 0 0 0-24.128233 0l-96.512933 96.529996a17.04675 17.04675 0 1 0 24.128233 24.128234l96.512933-96.512933a17.063814 17.063814 0 0 0 0-24.145297M735.148021 297.405729a16.995559 16.995559 0 0 0 12.064116 4.982634 16.995559 16.995559 0 0 0 12.064117-4.982634l84.448816-84.46588a17.04675 17.04675 0 1 0-24.128233-24.128233l-84.448816 84.448816a17.063814 17.063814 0 0 0 0 24.145297M795.690433 394.550023a17.063814 17.063814 0 0 0 22.285342 9.231524l63.067857-26.1247a17.063814 17.063814 0 0 0-13.070882-31.533929l-63.050793 26.141764a17.04675 17.04675 0 0 0-9.231524 22.285341M937.576048 352.863125c2.150041 0 4.351273-0.426595 6.484249-1.29685l69.193767-28.462442a17.063814 17.063814 0 0 0-12.968499-31.568056l-69.21083 28.462442a17.063814 17.063814 0 0 0 6.501313 32.864906M629.471819 228.331409a16.978495 16.978495 0 0 0 22.285342-9.231523l26.124699-63.084921a17.063814 17.063814 0 0 0-31.533928-13.036754l-26.107636 63.067857a17.04675 17.04675 0 0 0 9.231523 22.285341M681.755346 102.229823a17.012623 17.012623 0 0 0 22.268278-9.282715l28.445378-69.227894a17.063814 17.063814 0 1 0-31.568056-12.968499l-28.445379 69.21083a17.063814 17.063814 0 0 0 9.299779 22.268278M345.956547 156.032029l26.141763 63.067857a17.029687 17.029687 0 0 0 22.285342 9.231523 17.063814 17.063814 0 0 0 9.231523-22.302405l-26.124699-63.067857a17.063814 17.063814 0 0 0-31.533929 13.070882M319.848911 92.930044a17.080878 17.080878 0 0 0 31.568057-12.985563L322.937462 10.750715a17.04675 17.04675 0 1 0-31.568056 12.968499l28.479505 69.21083M142.794776 377.656847l63.067857 26.1247a17.063814 17.063814 0 1 0 13.070881-31.516865l-63.067857-26.141764a17.080878 17.080878 0 0 0-13.070881 31.533929M10.584343 323.103833l69.227895 28.445378a16.995559 16.995559 0 0 0 22.251213-9.299778 17.04675 17.04675 0 0 0-9.299779-22.268278L23.552842 291.535777a17.063814 17.063814 0 1 0-12.968499 31.568056M228.182102 629.638191a17.063814 17.063814 0 0 0-22.285342-9.248587l-63.084921 26.124699a17.063814 17.063814 0 1 0 13.036754 31.533929l63.101985-26.1247a17.063814 17.063814 0 0 0 9.231524-22.285341M79.77811 672.604875L10.584343 701.067317a17.063814 17.063814 0 0 0 12.968499 31.568056l69.21083-28.479506a17.063814 17.063814 0 1 0-12.985562-31.550992M394.400715 795.839741a17.029687 17.029687 0 0 0-22.285341 9.231523l-26.158827 63.084921a17.063814 17.063814 0 1 0 31.533929 13.053818l26.141763-63.067857a17.04675 17.04675 0 0 0-9.231524-22.302405M342.083061 921.941327a17.063814 17.063814 0 0 0-22.268277 9.282715l-28.445378 69.227894a17.063814 17.063814 0 1 0 31.568056 12.968499l28.445378-69.21083a17.063814 17.063814 0 0 0-9.299779-22.268278M677.88186 868.156185l-26.141763-63.101985a17.063814 17.063814 0 0 0-31.516865 13.070882l26.1247 63.084921a17.080878 17.080878 0 0 0 22.302405 9.231524 17.063814 17.063814 0 0 0 9.231523-22.285342M703.955368 931.155787a17.080878 17.080878 0 0 0-31.499801 13.173265l28.479506 68.118746a17.063814 17.063814 0 0 0 31.499801-13.156201l-28.479506-68.13581M881.043632 646.514303l-63.084921-26.124699a17.04675 17.04675 0 1 0-13.053818 31.516864l63.067857 26.141764a16.978495 16.978495 0 0 0 22.302405-9.231524 17.080878 17.080878 0 0 0-9.231523-22.302405M1013.254064 701.067317l-69.21083-28.428314a17.04675 17.04675 0 1 0-12.968499 31.550992l69.21083 28.445378a17.063814 17.063814 0 0 0 12.968499-31.568056" fill="#231F1F" p-id="3925"></path><path d="M623.34591 340.27003a17.063814 17.063814 0 1 0-18.599557 28.598953 171.491332 171.491332 0 0 1 59.330882 65.883386 17.063814 17.063814 0 0 0 30.42478-15.493943 205.670152 205.670152 0 0 0-71.156105-78.988396" fill="#231F1F" p-id="3926"></path></svg>