<?xml version="1.0" standalone="no"?><!DOCTYPE svg PUBLIC "-//W3C//DTD SVG 1.1//EN" "http://www.w3.org/Graphics/SVG/1.1/DTD/svg11.dtd"><svg t="1576572391905" class="icon" viewBox="0 0 1024 1024" version="1.1" xmlns="http://www.w3.org/2000/svg" p-id="4193" xmlns:xlink="http://www.w3.org/1999/xlink" width="32" height="32"><defs><style type="text/css"></style></defs><path d="M307.200341 641.9968V170.666667c0-56.4736-45.9264-102.4-102.4-102.4s-102.4 45.9264-102.4 102.4v324.266666a17.066667 17.066667 0 1 0 34.133334 0v-17.066666h17.066666a17.066667 17.066667 0 1 0 0-34.133334H136.533675v-68.266666h17.066666a17.066667 17.066667 0 1 0 0-34.133334H136.533675v-68.266666h17.066666a17.066667 17.066667 0 1 0 0-34.133334H136.533675v-68.266666c0-37.649067 30.6176-68.266667 68.266666-68.266667s68.266667 30.6176 68.266667 68.266667v481.450666a17.066667 17.066667 0 0 0 9.284267 15.2064A170.018133 170.018133 0 0 1 375.467008 819.2c0 94.1056-76.561067 170.666667-170.666667 170.666667S34.133675 913.3056 34.133675 819.2a170.018133 170.018133 0 0 1 93.115733-151.876267A17.066667 17.066667 0 0 0 136.533675 652.117333V580.266667h85.333333a17.066667 17.066667 0 1 0 0-34.133334H119.467008a17.066667 17.066667 0 0 0-17.066667 17.066667v78.7968A203.8784 203.8784 0 0 0 0.000341 819.2c0 112.930133 91.869867 204.8 204.8 204.8s204.8-91.869867 204.8-204.8c0-73.6256-38.9632-140.5952-102.4-177.2032" fill="#231F1F" p-id="4194"></path><path d="M187.733675 904.533333a17.066667 17.066667 0 0 0 17.066666 17.066667c56.4736 0 102.4-45.9264 102.4-102.4a17.066667 17.066667 0 1 0-34.133333 0c0 37.649067-30.6176 68.266667-68.266667 68.266667a17.066667 17.066667 0 0 0-17.066666 17.066666M1006.933675 307.2h-61.201067l22.0672-22.0672a17.0496 17.0496 0 1 0-24.132267-24.132267L897.468075 307.2h-54.135467l56.200533-56.200533a17.0496 17.0496 0 1 0-24.132266-24.132267L795.068075 307.2h-20.002134l-17.066666-17.066667 119.466666-119.466666H904.533675a17.066667 17.066667 0 1 0 0-34.133334h-17.066667V119.466667a17.066667 17.066667 0 1 0-34.133333 0v27.067733l-119.466667 119.466667-17.066667-17.066667v-20.002133l80.3328-80.3328a17.0496 17.0496 0 1 0-24.132266-24.132267L716.800341 180.667733V126.532267l46.199467-46.199467a17.0496 17.0496 0 1 0-24.132267-24.132267L716.800341 78.267733V17.066667a17.066667 17.066667 0 1 0-34.133333 0v61.201066l-22.0672-22.0672a17.0496 17.0496 0 1 0-24.132267 24.132267L682.667008 126.532267v54.135466l-56.200533-56.200533a17.0496 17.0496 0 1 0-24.132267 24.132267L682.667008 228.932267v20.002133l-17.066667 17.066667-119.466666-119.466667V119.466667a17.066667 17.066667 0 1 0-34.133334 0v17.066666h-17.066666a17.066667 17.066667 0 1 0 0 34.133334h27.067733l119.466667 119.466666-17.066667 17.066667h-20.002133l-80.3328-80.3328a17.0496 17.0496 0 1 0-24.132267 24.132267L556.134741 307.2h-54.135466l-46.199467-46.199467a17.0496 17.0496 0 1 0-24.132267 24.132267L453.734741 307.2H392.533675a17.066667 17.066667 0 1 0 0 34.133333h61.201066l-22.0672 22.0672a17.0496 17.0496 0 1 0 24.132267 24.132267L501.999275 341.333333h54.135466l-56.200533 56.200534a17.0496 17.0496 0 1 0 24.132267 24.132266L604.399275 341.333333h20.002133l17.066667 17.066667-119.466667 119.466667H494.933675a17.066667 17.066667 0 1 0 0 34.133333h17.066666v17.066667a17.066667 17.066667 0 1 0 34.133334 0v-27.067734l119.466666-119.466666 17.066667 17.066666v20.002134l-80.3328 80.3328a17.0496 17.0496 0 1 0 24.132267 24.132266L682.667008 467.8656v54.135467l-46.199467 46.199466a17.0496 17.0496 0 1 0 24.132267 24.132267L682.667008 570.2656V631.466667a17.066667 17.066667 0 1 0 34.133333 0v-61.201067l22.0672 22.0672a17.015467 17.015467 0 0 0 24.132267 0 17.0496 17.0496 0 0 0 0-24.132267L716.800341 522.001067v-54.135467l56.200534 56.200533a17.015467 17.015467 0 0 0 24.132266 0 17.0496 17.0496 0 0 0 0-24.132266L716.800341 419.601067v-20.002134l17.066667-17.066666 119.466667 119.466666V529.066667a17.066667 17.066667 0 1 0 34.133333 0v-17.066667h17.066667a17.066667 17.066667 0 1 0 0-34.133333h-27.067734l-119.466666-119.466667 17.066666-17.066667h20.002134l80.3328 80.3328a17.015467 17.015467 0 0 0 24.132266 0 17.0496 17.0496 0 0 0 0-24.132266L843.332608 341.333333h54.135467l46.199466 46.199467a17.015467 17.015467 0 0 0 24.132267 0 17.0496 17.0496 0 0 0 0-24.132267L945.732608 341.333333H1006.933675a17.066667 17.066667 0 1 0 0-34.133333z m-307.2 61.201067L655.599275 324.266667 699.733675 280.132267 743.868075 324.266667 699.733675 368.401067z" fill="#231F1F" p-id="4195"></path></svg>