<?xml version="1.0" standalone="no"?><!DOCTYPE svg PUBLIC "-//W3C//DTD SVG 1.1//EN" "http://www.w3.org/Graphics/SVG/1.1/DTD/svg11.dtd"><svg t="1576572381327" class="icon" viewBox="0 0 1024 1024" version="1.1" xmlns="http://www.w3.org/2000/svg" p-id="3790" xmlns:xlink="http://www.w3.org/1999/xlink" width="32" height="32"><defs><style type="text/css"></style></defs><path d="M307.200341 641.9968V170.666667c0-56.4736-45.9264-102.4-102.4-102.4s-102.4 45.9264-102.4 102.4v17.066666a17.066667 17.066667 0 1 0 34.133334 0v-17.066666c0-37.649067 30.6176-68.266667 68.266666-68.266667s68.266667 30.6176 68.266667 68.266667v481.450666a17.066667 17.066667 0 0 0 9.284267 15.2064A170.018133 170.018133 0 0 1 375.467008 819.2c0 94.1056-76.561067 170.666667-170.666667 170.666667S34.133675 913.3056 34.133675 819.2a170.018133 170.018133 0 0 1 93.115733-151.876267A17.066667 17.066667 0 0 0 136.533675 652.117333V580.266667h17.066666a17.066667 17.066667 0 1 0 0-34.133334H136.533675v-68.266666h17.066666a17.066667 17.066667 0 1 0 0-34.133334H136.533675v-68.266666h17.066666a17.066667 17.066667 0 1 0 0-34.133334H136.533675v-68.266666h85.333333a17.066667 17.066667 0 1 0 0-34.133334H119.467008a17.066667 17.066667 0 0 0-17.066667 17.066667v385.9968A203.8784 203.8784 0 0 0 0.000341 819.2c0 112.930133 91.869867 204.8 204.8 204.8s204.8-91.869867 204.8-204.8c0-73.6256-38.9632-140.5952-102.4-177.2032" fill="#231F1F" p-id="3791"></path><path d="M187.733675 904.533333a17.066667 17.066667 0 0 0 17.066666 17.066667c56.4736 0 102.4-45.9264 102.4-102.4a17.066667 17.066667 0 1 0-34.133333 0c0 37.649067-30.6176 68.266667-68.266667 68.266667a17.066667 17.066667 0 0 0-17.066666 17.066666M699.733675 136.5504c-103.509333 0-187.733333 84.206933-187.733334 187.733333C512.000341 427.793067 596.224341 512 699.733675 512s187.733333-84.206933 187.733333-187.716267c0-103.5264-84.224-187.733333-187.733333-187.733333zM699.733675 477.866667c-84.701867 0-153.6-68.898133-153.6-153.582934 0-84.701867 68.898133-153.6 153.6-153.6s153.6 68.898133 153.6 153.6C853.333675 408.968533 784.435541 477.866667 699.733675 477.866667zM1006.933675 307.2h-68.266667a17.066667 17.066667 0 1 0 0 34.1504h68.266667A17.066667 17.066667 0 1 0 1006.933675 307.2M868.676608 172.3904a17.015467 17.015467 0 0 0 12.066133-5.000533l48.2816-48.264534a17.066667 17.066667 0 0 0-24.1152-24.149333l-48.298666 48.2816a17.066667 17.066667 0 0 0 12.066133 29.1328M699.733675 102.4c9.437867 0 17.066667-7.6288 17.066666-17.0496V17.066667a17.066667 17.066667 0 1 0-34.133333 0v68.283733c0 9.4208 7.6288 17.0496 17.066667 17.0496M518.724608 167.389867a17.015467 17.015467 0 0 0 24.132267 0 17.066667 17.066667 0 0 0 0-24.132267l-48.298667-48.2816a17.066667 17.066667 0 0 0-24.132267 24.149333l48.298667 48.264534M392.533675 341.3504h68.266666A17.066667 17.066667 0 1 0 460.800341 307.2l-68.266666 0.017067a17.066667 17.066667 0 1 0 0 34.133333M518.724608 481.160533l-48.2816 48.2816a17.066667 17.066667 0 0 0 24.132267 24.132267l48.2816-48.2816a17.066667 17.066667 0 0 0-24.132267-24.132267M699.733675 546.133333a17.066667 17.066667 0 0 0-17.066667 17.066667l0.017067 68.266667a17.066667 17.066667 0 0 0 34.133333 0L716.800341 563.2a17.066667 17.066667 0 0 0-17.066666-17.066667M904.721408 239.36a17.066667 17.066667 0 0 0 22.289067 9.233067l31.5392-13.056a17.066667 17.066667 0 1 0-13.073067-31.522134l-31.522133 13.056a17.066667 17.066667 0 0 0-9.233067 22.289067M592.537941 110.062933a17.066667 17.066667 0 1 0 31.522134-13.073066l-13.056-31.5392a17.066667 17.066667 0 0 0-31.5392 13.073066l13.073066 31.5392M494.763008 409.173333a17.1008 17.1008 0 0 0-22.289067-9.233066l-31.5392 13.073066a17.066667 17.066667 0 1 0 13.073067 31.5392l31.522133-13.073066a17.066667 17.066667 0 0 0 9.233067-22.306134M806.929408 538.4704a17.066667 17.066667 0 1 0-31.522133 13.073067l13.073066 31.5392a17.066667 17.066667 0 1 0 31.5392-13.090134l-13.090133-31.522133M784.640341 119.278933a17.0496 17.0496 0 0 0 22.289067-9.233066l13.073067-31.522134a17.066667 17.066667 0 0 0-31.5392-13.073066l-13.056 31.5392a17.066667 17.066667 0 0 0 9.233066 22.289066M440.934741 235.537067l31.5392 13.056a17.066667 17.066667 0 0 0 13.056-31.5392l-31.522133-13.056a17.083733 17.083733 0 0 0-13.073067 31.5392M614.844075 529.237333a17.1008 17.1008 0 0 0-22.289067 9.250134l-13.056 31.522133a17.066667 17.066667 0 1 0 31.5392 13.056l13.038933-31.5392a17.066667 17.066667 0 0 0-9.233066-22.289067M958.549675 412.962133l-31.573334-13.038933a17.083733 17.083733 0 0 0-13.021866 31.556267l31.556266 13.038933a17.0496 17.0496 0 0 0 22.289067-9.2672 17.066667 17.066667 0 0 0-9.250133-22.289067M880.742741 481.143467a17.066667 17.066667 0 0 0-24.132266 24.149333l48.298666 48.264533a17.015467 17.015467 0 0 0 24.1152 0 17.066667 17.066667 0 0 0 0-24.149333l-48.2816-48.264533" fill="#231F1F" p-id="3792"></path></svg>