<?xml version="1.0" standalone="no"?><!DOCTYPE svg PUBLIC "-//W3C//DTD SVG 1.1//EN" "http://www.w3.org/Graphics/SVG/1.1/DTD/svg11.dtd"><svg t="1576572373106" class="icon" viewBox="0 0 1024 1024" version="1.1" xmlns="http://www.w3.org/2000/svg" p-id="3520" xmlns:xlink="http://www.w3.org/1999/xlink" width="32" height="32"><defs><style type="text/css"></style></defs><path d="M802.133333 307.2a17.066667 17.066667 0 0 0 17.066667-17.066667v-68.266666a17.066667 17.066667 0 0 0-34.133333 0v68.266666a17.066667 17.066667 0 0 0 17.066666 17.066667M358.4 989.866667h-119.466667V99.259733A51.131733 51.131733 0 0 0 273.066667 51.2c0-28.228267-22.971733-51.2-51.2-51.2S170.666667 22.971733 170.666667 51.2c0 22.2208 14.301867 40.977067 34.133333 48.042667V989.866667H85.333333a17.066667 17.066667 0 0 0 0 34.133333h273.066667a17.066667 17.066667 0 0 0 0-34.133333zM221.866667 34.133333c9.403733 0 17.066667 7.662933 17.066666 17.066667 0 9.403733-7.662933 17.066667-17.066666 17.066667-9.403733 0-17.066667-7.662933-17.066667-17.066667 0-9.403733 7.662933-17.066667 17.066667-17.066667z" fill="#231F1F" p-id="3521"></path><path d="M941.806933 170.9568l-546.133333-102.4c-0.8192-0.1536-1.6384-0.119467-2.4576-0.1536C392.977067 68.386133 392.772267 68.266667 392.533333 68.266667c-0.136533 0-0.238933 0.068267-0.3584 0.068266a17.152 17.152 0 0 0-6.877866 1.672534 16.827733 16.827733 0 0 0-4.8128 3.242666l-0.017067 0.034134-102.4 102.382933a17.0496 17.0496 0 1 0 24.132267 24.132267L375.466667 126.532267v258.935466l-73.2672-73.2672a17.0496 17.0496 0 1 0-24.132267 24.132267l102.4 102.4a16.861867 16.861867 0 0 0 5.512533 3.669333 16.8448 16.8448 0 0 0 9.693867 1.041067l546.133333-102.4A17.066667 17.066667 0 0 0 955.733333 324.266667v-136.533334a17.066667 17.066667 0 0 0-13.9264-16.776533zM921.6 310.101333l-512 96V105.898667l512 96v108.202666z" fill="#231F1F" p-id="3522"></path><path d="M529.066667 358.4a17.066667 17.066667 0 0 0 17.066666-17.066667V170.666667a17.066667 17.066667 0 0 0-34.133333 0v170.666666a17.066667 17.066667 0 0 0 17.066667 17.066667M665.6 333.073067a17.066667 17.066667 0 0 0 17.066667-17.066667v-118.664533a17.066667 17.066667 0 1 0-34.133334 0v118.664533a17.066667 17.066667 0 0 0 17.066667 17.066667" fill="#231F1F" p-id="3523"></path></svg>