<?xml version="1.0" standalone="no"?><!DOCTYPE svg PUBLIC "-//W3C//DTD SVG 1.1//EN" "http://www.w3.org/Graphics/SVG/1.1/DTD/svg11.dtd"><svg t="1576572333643" class="icon" viewBox="0 0 1335 1024" version="1.1" xmlns="http://www.w3.org/2000/svg" p-id="2315" xmlns:xlink="http://www.w3.org/1999/xlink" width="41.71875" height="32"><defs><style type="text/css"></style></defs><path d="M66.782609 400.695652h979.478261c94.564174 0 200.347826-85.682087 200.347826-200.347826s-105.783652-200.347826-200.347826-200.347826c-110.458435 0-200.347826 89.889391-200.347827 200.347826a22.26087 22.26087 0 0 0 44.52174 0c0-85.926957 69.89913-155.826087 155.826087-155.826087 72.058435 0 155.826087 68.073739 155.826087 155.826087s-83.767652 155.826087-155.826087 155.826087H66.782609a22.26087 22.26087 0 0 0 0 44.521739M890.434783 623.304348H66.782609a22.26087 22.26087 0 0 0 0 44.521739h823.652174c24.553739 0 44.521739 19.968 44.521739 44.521739a44.566261 44.566261 0 0 1-76.043131 31.47687 22.26087 22.26087 0 0 0-31.49913 31.454608A88.509217 88.509217 0 0 0 890.434783 801.391304c49.107478 0 89.043478-39.936 89.043478-89.043478s-39.936-89.043478-89.043478-89.043478" fill="#231F1F" p-id="2316"></path><path d="M111.304348 267.130435h581.520695C741.220174 267.130435 779.130435 228.018087 779.130435 178.086957c0-49.93113-37.910261-89.043478-86.305392-89.043479-23.81913 0-46.213565 9.282783-63.020521 26.112a22.26087 22.26087 0 0 0 31.521391 31.454609c8.392348-8.414609 19.589565-13.04487 31.49913-13.04487C716.644174 133.565217 734.608696 152.709565 734.608696 178.086957c0 25.377391-17.964522 44.521739-41.783653 44.521739H111.304348a22.26087 22.26087 0 0 0 0 44.521739M1202.086957 489.73913H22.26087a22.26087 22.26087 0 0 0 0 44.52174h1179.826087c49.107478 0 89.043478 39.936 89.043478 89.043478s-39.936 89.043478-89.043478 89.043478-89.043478-39.936-89.043479-89.043478a22.26087 22.26087 0 0 0-44.521739 0c0 73.661217 59.904 133.565217 133.565218 133.565217s133.565217-59.904 133.565217-133.565217-59.904-133.565217-133.565217-133.565218M623.304348 756.869565H111.304348a22.26087 22.26087 0 0 0 0 44.521739h512c49.107478 0 89.043478 39.936 89.043478 89.043479s-39.936 89.043478-89.043478 89.043478-89.043478-39.936-89.043478-89.043478a22.26087 22.26087 0 0 0-44.52174 0c0 73.661217 59.904 133.565217 133.565218 133.565217s133.565217-59.904 133.565217-133.565217-59.904-133.565217-133.565217-133.565218" fill="#231F1F" p-id="2317"></path></svg>