<?xml version="1.0" standalone="no"?><!DOCTYPE svg PUBLIC "-//W3C//DTD SVG 1.1//EN" "http://www.w3.org/Graphics/SVG/1.1/DTD/svg11.dtd"><svg t="1577070585940" class="icon" viewBox="0 0 1024 1024" version="1.1" xmlns="http://www.w3.org/2000/svg" p-id="3016" width="48" height="48" xmlns:xlink="http://www.w3.org/1999/xlink"><defs><style type="text/css"></style></defs><path d="M472.966516 714.210237c-28.931664 0-57.409166-7.586965-82.35136-21.939257-24.18086-13.914147-44.615349-33.88034-59.092017-57.739894l24.166726-14.664175c25.104261 41.374965 68.946026 66.075945 117.276651 66.075945 48.427677 0 92.315612-24.776359 117.400086-66.277585l24.191224 14.621774c-14.461592 23.927396-34.903619 43.952008-59.115573 57.913267-24.974231 14.398461-53.494134 22.009925-82.475737 22.009925z" fill="#2c2c2c" p-id="3017"></path><path d="M484.34131 647.863868c-108.826589 0-207.606951-14.730132-278.145373-41.47767-79.982554-30.329015-122.259248-74.758742-122.259248-128.48561 0-77.361225 89.060152-139.936726 238.234658-167.38718l5.116396 27.800027c-132.66824 24.414537-215.083673 77.901132-215.083673 139.588095 0 51.750978 56.563029 84.061537 104.014538 102.054667 67.415819 25.563135 162.636375 39.641232 268.123644 39.641232s200.70971-14.078098 268.125529-39.641232c47.449625-17.992188 104.013596-50.303688 104.013596-102.054667 0-66.487706-96.054444-123.175111-244.711657-144.418991l3.998892-27.982822c77.183141 11.030874 142.810576 31.664178 189.790021 59.671498 51.806571 30.88494 79.190125 69.8666 79.190125 112.731257 0 53.727811-42.275752 98.157537-122.258306 128.48561-70.541249 26.745653-169.32161 41.475785-278.149142 41.475786z" fill="#2c2c2c" p-id="3018"></path><path d="M473.0353 536.541269c-84.160473 0-161.091091-13.68895-222.474651-39.588467l-8.64228-3.646492 0.003769-12.628923c0-61.729364 24.040465-119.766065 67.691896-163.41844s101.689075-67.691897 163.421266-67.691896 119.769834 24.040465 163.421266 67.691896 67.691897 101.689075 67.691897 163.421266v12.627039l-8.639454 3.644608c-61.384502 25.899516-138.314178 39.589409-222.473709 39.589409z m-202.751557-62.086475c55.92607 21.848801 127.458562 33.819094 202.752499 33.819094 75.291111 0 146.824544-11.970293 202.7525-33.819094-3.30163-108.98206-92.984607-196.620362-202.7525-196.620362s-199.450869 87.639245-202.752499 196.620362z" fill="#2c2c2c" p-id="3019"></path><path d="M331.556117 428.119846h-14.13369c0-57.978282 47.169778-105.147118 105.148061-105.147119v14.133691c-50.185908 0.000942-91.01437 40.829405-91.014371 91.013428zM488.043395 700.069951l0.065957 117.09574-28.267381 0.016018-0.065957-117.096682z" fill="#2c2c2c" p-id="3020"></path><path d="M482.631134 690.911319l181.6933 170.360908-19.334888 20.621054-181.693301-170.360907z" fill="#2c2c2c" p-id="3021"></path><path d="M464.680405 690.911319l19.334888 20.621055-181.692358 170.360907-19.334889-20.621054z" fill="#2c2c2c" p-id="3022"></path></svg>