<?xml version="1.0" standalone="no"?><!DOCTYPE svg PUBLIC "-//W3C//DTD SVG 1.1//EN" "http://www.w3.org/Graphics/SVG/1.1/DTD/svg11.dtd"><svg t="1577071483145" class="icon" viewBox="0 0 1024 1024" version="1.1" xmlns="http://www.w3.org/2000/svg" p-id="8754" width="32" height="32" xmlns:xlink="http://www.w3.org/1999/xlink"><defs><style type="text/css"></style></defs><path d="M756.378342 1024H219.741421c-79.833576 0-144.735686-64.902109-144.735686-144.735686V144.735686C74.906192 64.902109 139.907845 0 219.741421 0v42.405366c-56.440945 0-102.429863 45.889375-102.429863 102.429863v734.429085c0 56.440945 45.889375 102.429863 102.429863 102.429863h536.736464c56.440945 0 102.429863-45.889375 102.429863-102.429863V144.735686H901.213571v734.429085c0 79.933119-65.001653 144.835229-144.835229 144.835229z" fill="#515151" p-id="8755"></path><path d="M901.213571 144.735686h-42.405366c0-56.440945-45.889375-102.429863-102.429863-102.429863H219.741421V0h536.736464C836.211918 0 901.213571 64.902109 901.213571 144.735686z" fill="#515151" p-id="8756"></path><path d="M789.924371 242.487022c-11.746087 0-21.202683-9.456596-21.202683-21.202683 0-60.12404-21.401769-90.584233-63.508506-90.584232H101.285117c-11.746087 0-21.202683-9.456596-21.202683-21.202683s9.456596-21.202683 21.202683-21.202683h604.027608c66.295713 0 105.814329 49.672013 105.814329 132.989598 0 11.646544-9.456596 21.202683-21.202683 21.202683zM911.76514 526.08535c-22.69583 0-41.210849-18.515019-41.210848-41.210848V370.798095c0-22.69583 18.515019-41.210849 41.210848-41.210849 22.69583 0 41.210849 18.515019 41.210849 41.210849v114.17595c0 22.69583-18.515019 41.111306-41.210849 41.111305z m0-168.22786c-7.167104 0-12.940605 5.773501-12.940604 12.940605v114.17595c0 7.167104 5.773501 12.940605 12.940604 12.940605s12.940605-5.773501 12.940605-12.940605V370.798095c0-7.167104-5.773501-12.940605-12.940605-12.940605z" fill="#515151" p-id="8757"></path><path d="M911.76514 694.412754c-22.69583 0-41.210849-18.515019-41.210848-41.210849V539.025955c0-22.69583 18.515019-41.210849 41.210848-41.210849 22.69583 0 41.210849 18.515019 41.210849 41.210849v114.17595c0 22.795373-18.515019 41.210849-41.210849 41.210849z m0-168.327404c-7.167104 0-12.940605 5.773501-12.940604 12.940605v114.17595c0 7.167104 5.773501 12.940605 12.940604 12.940605s12.940605-5.773501 12.940605-12.940605V539.025955c0-7.067561-5.773501-12.940605-12.940605-12.940605z" fill="#515151" p-id="8758"></path><path d="M911.76514 862.740157c-22.69583 0-41.210849-18.515019-41.210848-41.210848V707.452902c0-22.69583 18.515019-41.210849 41.210848-41.210849 22.69583 0 41.210849 18.515019 41.210849 41.210849v114.17595c0 22.69583-18.515019 41.111306-41.210849 41.111305z m0-168.327403c-7.167104 0-12.940605 5.773501-12.940604 12.940605v114.17595c0 7.167104 5.773501 12.940605 12.940604 12.940604s12.940605-5.773501 12.940605-12.940604V707.452902c0-7.167104-5.773501-13.040148-12.940605-13.040148zM867.070283 249.554583H163.200933c-30.858365 0-65.499368-42.20628-78.937688-60.323126-6.968018-9.456596-4.977156-22.69583 4.379897-29.663847 9.456596-6.968018 22.69583-4.977156 29.663847 4.379897 15.528726 20.904054 37.627297 41.90765 45.491203 43.301254h703.371634c11.746087 0 21.202683 9.456596 21.202683 21.202683s-9.556139 21.10314-21.302226 21.103139zM585.263731 493.833382v124.428891c0 7.66482 1.094974 13.338777 3.284923 17.220958 2.189948 3.882181 4.778069 6.768932 7.764362 8.560708 2.986293 1.791776 6.868475 2.687664 11.447458 2.687664 9.257509 0 16.922329-2.488578 23.094003-7.565277 6.171673-5.076699 11.049286-11.148829 14.632837-18.315932 3.583552-7.167104 6.171673-14.433751 7.565277-21.999028 1.393604-7.565277 2.189948-17.021872 2.189948-28.270244 0-12.741518-1.791776-25.084864-5.474871-37.030038-3.683095-11.945174-8.759794-23.193545-15.329639-33.745115-6.569845-10.55157-14.433751-20.306795-23.790804-29.066589-9.257509-8.759794-19.609993-16.424614-30.957908-22.69583-11.347915-6.271216-23.691261-11.248372-36.731409-14.732381-13.139691-3.484009-26.87664-5.275785-41.111305-5.275785-14.135122 0-27.772528 1.791776-40.812677 5.474872-13.040148 3.683095-25.283951 8.759794-36.631865 15.429182-11.347915 6.669389-21.600855 14.533294-30.957908 23.790804-9.357053 9.257509-17.220958 19.51045-23.790804 30.858365-6.569845 11.347915-11.646544 23.492175-15.329639 36.532322-3.683095 13.040148-5.474871 26.478468-5.474872 40.514047 0 14.135122 1.791776 27.772528 5.474872 40.812676 3.583552 13.040148 8.759794 25.283951 15.329639 36.731409 6.569845 11.347915 14.533294 21.700399 23.790804 30.957908 9.357053 9.257509 19.609993 17.220958 30.957908 23.790804 11.347915 6.669389 23.492175 11.746087 36.631865 15.429182 13.040148 3.583552 26.677554 5.474871 40.812677 5.474872 14.433751 0 28.270244-1.891319 41.609021-5.673958 13.338777-3.882181 25.881209-9.257509 37.527753-16.225527 0 0 16.32507-3.683095 22.098571 6.868475 6.171673 11.347915-4.47944 22.596287-4.47944 22.596286-14.135122 8.660251-29.365218 15.329639-45.690289 20.008166-16.32507 4.678526-33.346943 7.067561-51.16516 7.067561-17.220958 0-33.944201-2.189948-49.871099-6.669389-16.026441-4.47944-30.957908-10.750656-44.893944-18.813648-13.836493-8.162535-26.578011-17.91776-38.025469-29.365218-11.447458-11.447458-21.202683-24.089433-29.365218-38.025469-8.062992-13.936036-14.433751-28.867503-18.813648-44.893944-4.47944-16.026441-6.669389-32.650141-6.669389-49.8711 0-17.121415 2.189948-33.645572 6.669389-49.672013s10.750656-30.858365 18.813648-44.794401c8.162535-13.936036 17.91776-26.578011 29.365218-37.925925 11.447458-11.347915 24.089433-21.202683 38.025469-29.265676 13.936036-8.062992 28.867503-14.433751 44.893944-18.813648 16.026441-4.47944 32.650141-6.669389 49.871099-6.669388 17.519588 0 34.342374 2.189948 50.368815 6.470302 16.125984 4.379897 31.057451 10.352484 44.893944 18.116846 13.936036 7.764363 26.578011 17.121415 37.925926 27.971615 11.347915 10.850199 21.10314 22.894916 29.166132 36.034607 8.062992 13.139691 14.334208 27.17527 18.714105 42.106737 4.47944 14.931467 6.669389 30.460192 6.669389 46.38709 0 8.560708-0.796345 17.121415-2.488578 25.682123s-4.081268 16.922329-7.266647 24.786235c-3.284923 7.863906-7.266647 15.230096-11.945174 22.198114-4.678526 6.868475-10.153397 12.841062-16.32507 17.917761-6.171673 5.076699-13.040148 9.058423-20.505881 12.044716-7.465733 2.88675-15.628269 4.379897-24.388063 4.379897-11.547001 0-21.10314-2.488578-28.867503-7.465733-7.764363-4.977156-13.836493-11.447458-18.216389-19.311364-7.863906 6.470302-16.723243 11.547001-26.677554 15.230096-9.854768 3.583552-20.505881 5.474871-31.853797 5.474871-13.139691 0-25.184408-2.289492-36.134149-6.868475-10.949742-4.578983-20.406338-10.850199-28.469331-18.913191-7.963449-7.963449-14.234665-17.320502-18.714105-27.971615-4.47944-10.651113-6.669389-22.098571-6.669388-34.342373 0-12.14426 2.289492-23.591718 6.968018-34.242831 4.578983-10.750656 10.949742-20.008166 19.012734-28.071158 8.062992-7.963449 17.619131-14.334208 28.568873-19.012734 10.949742-4.678526 22.69583-7.067561 35.337805-7.067561 9.157966 0 17.91776 1.29406 26.279382 3.782638 8.361621 2.488578 16.125984 6.07213 23.293088 10.750656v-15.628269h34.84009z m-84.014387 142.844367c11.746087 0 21.899485-2.687664 30.360649-8.162536 8.461165-5.474871 14.831924-12.542432 19.112278-21.10314v-47.482064c-2.189948-4.379897-4.877613-8.461165-8.162535-12.14426-3.284923-3.782638-7.167104-6.968018-11.347915-9.655682-4.280354-2.687664-8.95888-4.778069-14.035579-6.271216s-10.352484-2.189948-16.026441-2.189949c-7.963449 0-15.429182 1.393604-22.198114 4.280354-6.768932 2.88675-12.641975 6.768932-17.519588 11.646545-4.977156 4.877613-8.759794 10.55157-11.547001 17.121415-2.787207 6.569845-4.180811 13.537863-4.180811 20.704967 0 7.36619 1.29406 14.334208 3.981724 20.704968 2.588121 6.470302 6.370759 12.044717 11.148829 16.922329 4.778069 4.778069 10.651113 8.660251 17.420045 11.447458 6.968018 2.787207 14.533294 4.180811 22.994459 4.180811z" fill="#515151" p-id="8759"></path></svg>