<?xml version="1.0" standalone="no"?><!DOCTYPE svg PUBLIC "-//W3C//DTD SVG 1.1//EN" "http://www.w3.org/Graphics/SVG/1.1/DTD/svg11.dtd"><svg t="1577084769511" class="icon" viewBox="0 0 1024 1024" version="1.1" xmlns="http://www.w3.org/2000/svg" p-id="19998" xmlns:xlink="http://www.w3.org/1999/xlink" width="32" height="32"><defs><style type="text/css"></style></defs><path d="M155.428571 599.588571c0 139.702857 116.662857 257.462857 356.388572 352.182858 234.788571-94.72 351.634286-212.845714 356.754286-352.182858V213.211429q-182.857143-9.142857-356.571429-136.228572-172.982857 127.085714-356.571429 136.228572zM128 158.902857c124.891429 0 247.222857-45.714286 367.36-138.057143l16.64-12.8 16.64 12.8C649.325714 113.188571 771.657143 158.902857 896 158.902857h27.428571v441.6c-6.034286 168.777143-141.897143 303.725714-401.371428 406.308572l-9.874286 4.022857-10.057143-3.84c-265.325714-102.765714-402.285714-237.714286-402.285714-407.405715V158.902857z" fill="#8a8a8a" p-id="19999"></path><path d="M417.462857 353.462857v317.074286h189.074286V353.462857z m243.931429-18.285714v353.645714a36.571429 36.571429 0 0 1-36.571429 36.571429H399.177143a36.571429 36.571429 0 0 1-36.571429-36.571429V335.177143a36.571429 36.571429 0 0 1 36.571429-36.571429h225.645714a36.571429 36.571429 0 0 1 36.571429 36.571429z" fill="#8a8a8a" p-id="20000"></path><path d="M493.714286 603.428571h36.571428a18.285714 18.285714 0 0 1 18.285715 18.285715 18.285714 18.285714 0 0 1-18.285715 18.285714h-36.571428a18.285714 18.285714 0 0 1-18.285715-18.285714 18.285714 18.285714 0 0 1 18.285715-18.285715z" fill="#8a8a8a" p-id="20001"></path></svg>