<?xml version="1.0" standalone="no"?><!DOCTYPE svg PUBLIC "-//W3C//DTD SVG 1.1//EN" "http://www.w3.org/Graphics/SVG/1.1/DTD/svg11.dtd"><svg t="1577071401721" class="icon" viewBox="0 0 1024 1024" version="1.1" xmlns="http://www.w3.org/2000/svg" p-id="5163" width="32" height="32" xmlns:xlink="http://www.w3.org/1999/xlink"><defs><style type="text/css"></style></defs><path d="M375.7056 581.0688V446.208L492.1344 378.88l113.408 64.3072c3.072 3.072 6.144 6.144 6.144 9.216v128.7168l-119.552 67.3792-116.4288-67.3792z m585.2672 131.7376v-395.264c0-42.9056-21.4016-79.7184-61.2864-101.12L553.472 17.2544a119.04 119.04 0 0 0-119.5008 0l-346.2656 196.096C50.8928 234.8032 26.368 274.6368 26.368 314.4704v395.264c0 42.9056 21.4528 79.7184 61.2864 101.1712l349.3376 196.096a119.04 119.04 0 0 0 119.5008 0l349.3376-196.096c33.7408-18.432 55.1424-58.2656 55.1424-98.0992z m-257.3824-79.6672L495.2064 752.64l-208.384-119.5008V397.2096l208.384-119.5008 208.384 119.5008v235.9296z" fill="#8a8a8a" p-id="5164"></path></svg>