<?xml version="1.0" standalone="no"?><!DOCTYPE svg PUBLIC "-//W3C//DTD SVG 1.1//EN" "http://www.w3.org/Graphics/SVG/1.1/DTD/svg11.dtd"><svg t="1577084949066" class="icon" viewBox="0 0 1026 1024" version="1.1" xmlns="http://www.w3.org/2000/svg" p-id="21206" xmlns:xlink="http://www.w3.org/1999/xlink" width="32.0625" height="32"><defs><style type="text/css"></style></defs><path d="M589.583514 1024h-152.294618a56.993168 56.993168 0 0 1-57.021607-57.050047v-52.357496c-7.394323-2.673332-15.41432-5.375104-22.780204-8.048437l-12.769427-5.346664c-7.337444-3.412765-14.760207-6.76865-22.12609-10.778648l-36.886297 36.971616c-21.471977 21.443537-58.386713 21.443537-80.541243 0l-107.331445-108.127757a56.481253 56.481253 0 0 1-16.750985-40.270621c0-15.471199 6.029217-29.548853 16.750985-40.270622l36.886297-36.971616-10.067655-22.154529-4.692551-10.750209c-3.355885-8.759429-6.71177-16.779426-9.413543-25.510415h-51.646503a56.964728 56.964728 0 0 1-57.021608-57.050047V435.866911c0-31.539632 25.481975-57.050047 57.021608-57.050047h52.329056c2.673332-7.394323 5.375104-15.44276 8.076876-22.837083l4.009999-9.413542c4.009998-8.70255 8.076876-17.433539 11.404321-24.856302l-36.886297-36.914736a56.339055 56.339055 0 0 1-16.750985-40.299061c0-15.41432 6.029217-29.548853 16.750985-40.299062l107.331445-107.388324c22.15453-22.15453 58.386713-21.500417 80.541243 0l36.886297 36.943176c7.394323-3.384325 14.788646-7.422763 22.12609-10.067655l12.058435-5.375104c7.394323-3.384325 15.44276-6.057657 23.491196-8.73099v-52.357496c0-31.596512 25.481975-57.078487 57.021607-57.078486h152.294618c31.511193 0 57.021608 25.481975 57.021607 57.078486v52.357496c7.394323 2.673332 15.471199 5.346664 22.808643 8.048437l10.067656 4.066878c8.759429 4.009998 16.750986 7.365883 24.827862 11.375881l36.914736-36.886296c10.039216-10.067655 24.827862-16.153752 40.242182-16.153753s29.548853 6.057657 40.242182 16.153753l107.331445 107.416763c10.778648 10.721769 16.779426 24.827862 16.779425 40.270622 0 15.44276-6.000778 29.548853-16.779425 40.270622l-36.886297 36.943176c3.355885 7.394323 7.394323 14.760207 10.039216 22.182969l4.692551 10.721769c3.384325 8.70255 6.71177 16.779426 9.441982 24.856302h52.272177c31.568072 0 57.078487 25.510415 57.078487 57.050047v152.379936a57.050047 57.050047 0 0 1-57.078487 57.106927h-52.272177c-2.730212 7.365883-5.375104 15.44276-8.105316 22.865522l-4.664112 10.693329a207.638283 207.638283 0 0 1-11.375881 24.202189l36.886296 36.943176c10.778648 10.721769 16.779426 24.799422 16.779426 40.270622 0 15.41432-6.000778 29.548853-16.779426 40.327501l-107.331444 107.359884c-21.471977 21.471977-58.358274 21.471977-80.484364 0l-36.914737-36.943176c-7.394323 3.327445-14.760207 7.365883-22.154529 10.096095l-10.750209 4.664112a566.518914 566.518914 0 0 1-24.799422 8.759429v52.357495a57.021608 57.021608 0 0 1-57.050047 57.021608z m-271.712937-196.660557a26.164528 26.164528 0 0 1 14.077654 4.009999c11.404322 6.71177 23.491196 12.740988 35.57807 18.144531l11.404322 4.664112c12.058435 4.692551 24.827862 8.787869 37.568849 12.769427 12.769427 3.355885 20.789424 14.788646 20.789424 27.501194v73.886353h151.612065v-73.17536c0-12.740988 8.730989-24.173749 20.760984-27.501194 12.769427-3.412765 26.221408-8.105316 39.616509-13.48042l10.096095-4.009999c12.029995-5.375104 23.491196-11.404322 35.521191-17.461978 11.404322-6.029217 25.481975-4.692551 34.184524 4.720991l51.703383 52.357496 107.359885-107.416764-51.646504-51.703383a28.439704 28.439704 0 0 1-4.720991-34.184525 392.467922 392.467922 0 0 0 18.770205-37.597289l4.009999-9.441982c4.720991-12.086874 8.787869-24.827862 12.769427-37.597289 3.327445-12.058435 14.731767-20.732545 27.501194-20.732545h73.772594V439.279676h-73.061601a28.724102 28.724102 0 0 1-27.501194-20.760985c-3.412765-12.740988-8.076876-26.164528-13.48042-39.616508l-4.009999-10.067655a348.869855 348.869855 0 0 0-17.433539-35.578071c-6.057657-11.404322-4.720991-25.510415 4.720991-34.241404l51.646504-51.703383-107.359885-107.416764-51.646503 51.674943c-9.385102 9.413542-23.491196 10.750208-34.241404 4.720991a408.536355 408.536355 0 0 0-38.194523-18.798644l-9.441982-4.038438a581.051603 581.051603 0 0 0-37.54041-12.740988 28.780981 28.780981 0 0 1-20.789424-27.558074V59.325224h-151.640505v73.175359c0 12.740988-8.70255 24.145309-20.789424 27.529634-12.740988 3.355885-25.481975 8.019997-37.568849 12.740988l-11.404322 4.692551c-12.086874 5.375104-23.491196 11.404322-35.57807 17.461979-11.375882 6.029217-25.481975 4.692551-34.184525-4.720991L247.425429 138.472921l-107.331445 107.388324 51.646504 51.731823c9.385102 9.385102 10.721769 23.491196 4.692551 34.212964-6.71177 12.115314-12.740988 24.173749-18.798645 38.279843l-3.355885 8.730989c-4.720991 12.086874-8.730989 24.856302-12.740987 37.597289-5.375104 11.432761-16.096873 20.135311-29.520414 20.135311h-73.801033v151.697384l73.14692-0.625674c12.712548 0 24.173749 8.730989 27.501194 20.789424 3.327445 12.797867 8.019997 26.192968 13.395101 39.616509l4.009998 9.441981c5.375104 12.086874 11.404322 24.173749 17.490419 35.578071 6.683331 11.375882 4.664112 25.510415-4.720991 34.212964l-51.674943 51.703383 107.388324 107.359885 51.618064-52.357496c6.74021-3.953119 14.134533-6.626451 21.500416-6.626452z m195.210132-153.773482c-89.243793 0-161.67972-72.521246-161.67972-161.793479s73.11848-161.139366 161.67972-161.139365c88.589679 0 161.765039 72.521246 161.765039 161.793479s-72.492807 161.139366-161.765039 161.139365z m0-265.854357a104.089318 104.089318 0 0 0-103.97556 104.060878c0 57.021608 46.982392 104.060879 103.97556 104.060879 57.050047 0 104.032439-47.039271 104.032439-104.060879a104.089318 104.089318 0 0 0-104.032439-104.060878z" p-id="21207"></path></svg>