<?xml version="1.0" standalone="no"?><!DOCTYPE svg PUBLIC "-//W3C//DTD SVG 1.1//EN" "http://www.w3.org/Graphics/SVG/1.1/DTD/svg11.dtd"><svg t="1577084915183" class="icon" viewBox="0 0 1024 1024" version="1.1" xmlns="http://www.w3.org/2000/svg" p-id="20457" xmlns:xlink="http://www.w3.org/1999/xlink" width="32" height="32"><defs><style type="text/css"></style></defs><path d="M1001.670992 201.251907c-10.644278-63.319807-27.29302-106.101616-49.946227-128.447776-22.653207-22.312044-65.639713-39.131368-128.95952-50.492087a1347.012894 1347.012894 0 0 0-67.447876-8.97258 2242.189838 2242.189838 0 0 0-76.454573-6.993837 2071.847276 2071.847276 0 0 0-83.482526-4.503348 2537.568549 2537.568549 0 0 0-87.440013-1.501116c-59.294086 0-115.31301 1.842279-167.920306 5.49272-52.641413 3.684558-98.937198 9.177278-138.921473 16.512277-63.319807 10.644278-106.101616 27.29302-128.447776 49.946227-22.312044 22.653207-39.131368 65.980876-50.492087 129.948892-7.300883 41.963018-12.793603 90.135199-16.478161 144.414193A2471.587673 2471.587673 0 0 0 0.187733 513.074663c0 56.633017 1.842279 111.969615 5.492721 165.941562 3.684558 53.971947 9.177278 101.93943 16.512277 143.902449 10.644278 63.319807 27.29302 106.101616 49.946227 128.447776 22.653207 22.312044 65.639713 39.131368 128.95952 50.492087 20.640346 3.309279 43.122972 6.311511 67.447876 8.972581a2198.623355 2198.623355 0 0 0 160.414726 11.497185c28.657671 1.023488 57.997668 1.501116 87.985874 1.501116 58.611761 0 114.289522-1.842279 166.896818-5.492721 52.641413-3.684558 98.937198-9.177278 138.921473-16.512277 63.319807-10.644278 106.101616-27.29302 128.447776-49.946227 22.312044-22.653207 39.131368-65.639713 50.492087-128.95952 7.300883-42.645344 12.793603-91.090455 16.478161-145.403565 3.650441-54.31311 5.49272-109.786174 5.49272-166.41919 0-56.633017-1.842279-111.969615-5.49272-165.941563-3.684558-53.971947-9.177278-101.93943-16.512277-143.902449z m-31.96695 615.696419c-9.996069 57.315342-23.81316 94.945594-41.485391 112.924871-17.638114 17.979277-54.483691 32.001066-110.434383 41.963018-39.301949 6.68679-84.778944 11.667766-136.4651 15.011161-51.617924 3.343395-106.442779 5.015092-164.372214 5.015093-29.339997 0-58.168249-0.341163-86.484758-1.023488-28.316508-0.682326-55.78011-1.978744-82.459037-3.991605a2034.592304 2034.592304 0 0 1-75.465201-6.993836 1254.114276 1254.114276 0 0 1-65.435016-9.006697c-57.315342-10.644278-94.97971-24.802532-112.958987-42.474762-17.979277-17.638114-31.659903-54.483691-40.973646-110.434383-7.334999-41.314809-12.827719-88.634083-16.512277-141.923705a2191.151891 2191.151891 0 0 1-4.980977-163.416958c0.341163-55.643645 2.319907-110.127336 6.004465-163.416958a1581.630518 1581.630518 0 0 1 15.488789-141.923705c9.996069-57.315342 23.983741-94.97971 41.963018-112.958987 18.013393-17.979277 54.995436-31.659903 110.946127-40.973647 39.336065-7.334999 84.81306-12.657138 136.465101-16.000533a2576.017591 2576.017591 0 0 1 165.395702-4.980976c28.657671 0 57.315342 0.341163 85.973014 0.989372 28.657671 0.682326 56.121273 1.978744 82.42492 3.991604 26.337764 2.01286 51.310878 4.332767 74.987573 6.993836 23.642579 2.661069 45.476995 5.663302 65.469132 9.006697 57.315342 10.644278 94.945594 24.802532 112.924871 42.474763 17.979277 17.638114 31.659903 54.483691 40.973647 110.434383 7.334999 41.314809 12.827719 88.634083 16.512277 141.923704 3.650441 53.323738 5.322139 107.80743 4.980976 163.416959a2610.577378 2610.577378 0 0 1-6.004464 163.416958c-3.650441 53.323738-9.143162 100.643012-16.478161 141.923705z m-161.915842-550.739031l-16.989905-7.983208a1204.645677 1204.645677 0 0 0-27.497718-11.497185 762.771681 762.771681 0 0 0-64.47976-22.516741 940.00573 940.00573 0 0 0-87.951758-21.970882 493.59427 493.59427 0 0 0-197.874396 0c-32.649275 6.652674-61.989272 13.987673-87.951757 22.004998-25.996602 7.983208-47.489855 15.488789-64.47976 22.482625a1204.645677 1204.645677 0 0 0-27.497718 11.497185l-16.989905 7.983208-1.023488 17.979277v25.484858c0 15.693487 0.54586 35.344461 1.535232 58.98704 1.023488 23.642579 2.831651 50.321506 5.458604 79.968549 2.729302 29.647043 7.027953 59.123505 13.032417 88.429385l51.959087-49.946227c-6.004464-43.327669-9.484325-79.490921-10.473696-108.489755-1.023488-28.964718-1.501116-53.460203-1.501116-73.418224 19.992137-8.017325 52.641413-18.832184 97.913709-32.51281 45.34053-13.64651 91.636315-20.469765 138.955589-20.469765 47.319274 0 93.615059 6.823255 138.921473 20.469765 45.306413 13.64651 77.955689 24.495486 97.947826 32.51281 0 22.653207-1.330535 58.952924-3.991604 108.933267a692.458038 692.458038 0 0 1-22.99437 144.925937 227.964951 227.964951 0 0 1-41.963018 81.947293 400.934466 400.934466 0 0 1-61.477528 61.989272 424.406463 424.406463 0 0 1-61.955156 41.963018c-19.650975 10.678394-34.491554 18.013393-44.487623 22.004998-16.000533-6.68679-44.317041-22.516742-84.949525-47.489855-40.6666-24.973113-73.964085-59.464668-99.960686-103.440547l85.973013-91.943361 83.926037 69.938364 134.963985-148.917542 3.002232 50.969716 53.971947-3.002233-6.993836-149.906913-143.970681 6.993837 2.046976 54.961319 49.946227-3.002232-98.937198 108.967383-83.960153-69.972481-152.943262 165.907447 9.996069 18.013393a309.707546 309.707546 0 0 0 64.47976 89.930501c26.337764 25.314276 51.993203 46.15932 76.966317 62.4669 24.973113 16.341696 46.80753 28.657671 65.469132 36.982042 18.661603 8.324371 28.998834 12.827719 30.977578 13.510045l9.996068 3.991605 10.985441-3.991605c2.01286-0.682326 14.158254-6.14093 36.504414-16.512277 22.312044-10.303115 47.796902-25.791904 76.420457-46.466367 28.657671-20.640346 56.837714-46.636948 84.471897-77.955688 27.668299-31.318741 47.489855-68.641946 59.498784-111.935499 8.665534-31.318741 15.011161-63.797435 18.968649-97.470199 3.991604-33.638647 6.68679-64.47976 8.017325-92.455105 1.330535-27.975346 1.978744-51.310878 1.978744-69.938364v-31.011695z" fill="" p-id="20458"></path></svg>